<?xml version="1.0" encoding="utf-8" standalone="no"?>
<!DOCTYPE svg PUBLIC "-//W3C//DTD SVG 1.1//EN"
  "http://www.w3.org/Graphics/SVG/1.1/DTD/svg11.dtd">
<svg xmlns:xlink="http://www.w3.org/1999/xlink" width="643.2975pt" height="409.536375pt" viewBox="0 0 643.2975 409.536375" xmlns="http://www.w3.org/2000/svg" version="1.1">
 <metadata>
  <rdf:RDF xmlns:dc="http://purl.org/dc/elements/1.1/" xmlns:cc="http://creativecommons.org/ns#" xmlns:rdf="http://www.w3.org/1999/02/22-rdf-syntax-ns#">
   <cc:Work>
    <dc:type rdf:resource="http://purl.org/dc/dcmitype/StillImage"/>
    <dc:date>2026-08-05T21:52:14.048485</dc:date>
    <dc:format>image/svg+xml</dc:format>
    <dc:creator>
     <cc:Agent>
      <dc:title>Matplotlib v3.11.1, https://matplotlib.org/</dc:title>
     </cc:Agent>
    </dc:creator>
   </cc:Work>
  </rdf:RDF>
 </metadata>
 <defs>
  <style type="text/css">*{stroke-linejoin: round; stroke-linecap: butt}</style>
 </defs>
 <g id="figure_1">
  <g id="patch_1">
   <path d="M 0 409.536375 
L 643.2975 409.536375 
L 643.2975 0 
L 0 0 
z
" style="fill: #fcfcfb"/>
  </g>
  <g id="axes_1">
   <g id="patch_2">
    <path d="M 85.86 343.9665 
L 615.96 343.9665 
L 615.96 33.5025 
L 85.86 33.5025 
z
" style="fill: #fcfcfb"/>
   </g>
   <g id="patch_3">
    <path d="M 402.06 343.9665 
L 448.56 343.9665 
L 448.56 33.5025 
L 402.06 33.5025 
z
" clip-path="url(#p56951870a9)" style="fill: #f0efec; stroke: #f0efec; stroke-linejoin: miter"/>
   </g>
   <g id="matplotlib.axis_1">
    <g id="xtick_1">
     <g id="line2d_1">
      <defs>
       <path id="m2592628687" d="M 0 0 
L 0 3.5 
" style="stroke: #898781; stroke-width: 0.8"/>
      </defs>
      <g>
       <use xlink:href="#m2592628687" x="99.81" y="343.9665" style="fill: #898781; stroke: #898781; stroke-width: 0.8"/>
      </g>
     </g>
     <g id="text_1">
      <!-- 2014 -->
      <g style="fill: #898781" transform="translate(87.085 358.564156) scale(0.1 -0.1)">
       <defs>
        <path id="DejaVuSans-15" d="M 1228 531 
L 3431 531 
L 3431 0 
L 469 0 
L 469 531 
Q 828 903 1448 1529 
Q 2069 2156 2228 2338 
Q 2531 2678 2651 2914 
Q 2772 3150 2772 3378 
Q 2772 3750 2511 3984 
Q 2250 4219 1831 4219 
Q 1534 4219 1204 4116 
Q 875 4013 500 3803 
L 500 4441 
Q 881 4594 1212 4672 
Q 1544 4750 1819 4750 
Q 2544 4750 2975 4387 
Q 3406 4025 3406 3419 
Q 3406 3131 3298 2873 
Q 3191 2616 2906 2266 
Q 2828 2175 2409 1742 
Q 1991 1309 1228 531 
z
" transform="scale(0.015625)"/>
        <path id="DejaVuSans-13" d="M 2034 4250 
Q 1547 4250 1301 3770 
Q 1056 3291 1056 2328 
Q 1056 1369 1301 889 
Q 1547 409 2034 409 
Q 2525 409 2770 889 
Q 3016 1369 3016 2328 
Q 3016 3291 2770 3770 
Q 2525 4250 2034 4250 
z
M 2034 4750 
Q 2819 4750 3233 4129 
Q 3647 3509 3647 2328 
Q 3647 1150 3233 529 
Q 2819 -91 2034 -91 
Q 1250 -91 836 529 
Q 422 1150 422 2328 
Q 422 3509 836 4129 
Q 1250 4750 2034 4750 
z
" transform="scale(0.015625)"/>
        <path id="DejaVuSans-14" d="M 794 531 
L 1825 531 
L 1825 4091 
L 703 3866 
L 703 4441 
L 1819 4666 
L 2450 4666 
L 2450 531 
L 3481 531 
L 3481 0 
L 794 0 
L 794 531 
z
" transform="scale(0.015625)"/>
        <path id="DejaVuSans-17" d="M 2419 4116 
L 825 1625 
L 2419 1625 
L 2419 4116 
z
M 2253 4666 
L 3047 4666 
L 3047 1625 
L 3713 1625 
L 3713 1100 
L 3047 1100 
L 3047 0 
L 2419 0 
L 2419 1100 
L 313 1100 
L 313 1709 
L 2253 4666 
z
" transform="scale(0.015625)"/>
       </defs>
       <use xlink:href="#DejaVuSans-15"/>
       <use xlink:href="#DejaVuSans-13" transform="translate(63.625 0)"/>
       <use xlink:href="#DejaVuSans-14" transform="translate(127.25 0)"/>
       <use xlink:href="#DejaVuSans-17" transform="translate(190.875 0)"/>
      </g>
     </g>
    </g>
    <g id="xtick_2">
     <g id="line2d_2">
      <g>
       <use xlink:href="#m2592628687" x="146.31" y="343.9665" style="fill: #898781; stroke: #898781; stroke-width: 0.8"/>
      </g>
     </g>
     <g id="text_2">
      <!-- 2015 -->
      <g style="fill: #898781" transform="translate(133.585 358.564156) scale(0.1 -0.1)">
       <defs>
        <path id="DejaVuSans-18" d="M 691 4666 
L 3169 4666 
L 3169 4134 
L 1269 4134 
L 1269 2991 
Q 1406 3038 1543 3061 
Q 1681 3084 1819 3084 
Q 2600 3084 3056 2656 
Q 3513 2228 3513 1497 
Q 3513 744 3044 326 
Q 2575 -91 1722 -91 
Q 1428 -91 1123 -41 
Q 819 9 494 109 
L 494 744 
Q 775 591 1075 516 
Q 1375 441 1709 441 
Q 2250 441 2565 725 
Q 2881 1009 2881 1497 
Q 2881 1984 2565 2268 
Q 2250 2553 1709 2553 
Q 1456 2553 1204 2497 
Q 953 2441 691 2322 
L 691 4666 
z
" transform="scale(0.015625)"/>
       </defs>
       <use xlink:href="#DejaVuSans-15"/>
       <use xlink:href="#DejaVuSans-13" transform="translate(63.625 0)"/>
       <use xlink:href="#DejaVuSans-14" transform="translate(127.25 0)"/>
       <use xlink:href="#DejaVuSans-18" transform="translate(190.875 0)"/>
      </g>
     </g>
    </g>
    <g id="xtick_3">
     <g id="line2d_3">
      <g>
       <use xlink:href="#m2592628687" x="192.81" y="343.9665" style="fill: #898781; stroke: #898781; stroke-width: 0.8"/>
      </g>
     </g>
     <g id="text_3">
      <!-- 2016 -->
      <g style="fill: #898781" transform="translate(180.085 358.564156) scale(0.1 -0.1)">
       <defs>
        <path id="DejaVuSans-19" d="M 2113 2584 
Q 1688 2584 1439 2293 
Q 1191 2003 1191 1497 
Q 1191 994 1439 701 
Q 1688 409 2113 409 
Q 2538 409 2786 701 
Q 3034 994 3034 1497 
Q 3034 2003 2786 2293 
Q 2538 2584 2113 2584 
z
M 3366 4563 
L 3366 3988 
Q 3128 4100 2886 4159 
Q 2644 4219 2406 4219 
Q 1781 4219 1451 3797 
Q 1122 3375 1075 2522 
Q 1259 2794 1537 2939 
Q 1816 3084 2150 3084 
Q 2853 3084 3261 2657 
Q 3669 2231 3669 1497 
Q 3669 778 3244 343 
Q 2819 -91 2113 -91 
Q 1303 -91 875 529 
Q 447 1150 447 2328 
Q 447 3434 972 4092 
Q 1497 4750 2381 4750 
Q 2619 4750 2861 4703 
Q 3103 4656 3366 4563 
z
" transform="scale(0.015625)"/>
       </defs>
       <use xlink:href="#DejaVuSans-15"/>
       <use xlink:href="#DejaVuSans-13" transform="translate(63.625 0)"/>
       <use xlink:href="#DejaVuSans-14" transform="translate(127.25 0)"/>
       <use xlink:href="#DejaVuSans-19" transform="translate(190.875 0)"/>
      </g>
     </g>
    </g>
    <g id="xtick_4">
     <g id="line2d_4">
      <g>
       <use xlink:href="#m2592628687" x="239.31" y="343.9665" style="fill: #898781; stroke: #898781; stroke-width: 0.8"/>
      </g>
     </g>
     <g id="text_4">
      <!-- 2017 -->
      <g style="fill: #898781" transform="translate(226.585 358.564156) scale(0.1 -0.1)">
       <defs>
        <path id="DejaVuSans-1a" d="M 525 4666 
L 3525 4666 
L 3525 4397 
L 1831 0 
L 1172 0 
L 2766 4134 
L 525 4134 
L 525 4666 
z
" transform="scale(0.015625)"/>
       </defs>
       <use xlink:href="#DejaVuSans-15"/>
       <use xlink:href="#DejaVuSans-13" transform="translate(63.625 0)"/>
       <use xlink:href="#DejaVuSans-14" transform="translate(127.25 0)"/>
       <use xlink:href="#DejaVuSans-1a" transform="translate(190.875 0)"/>
      </g>
     </g>
    </g>
    <g id="xtick_5">
     <g id="line2d_5">
      <g>
       <use xlink:href="#m2592628687" x="285.81" y="343.9665" style="fill: #898781; stroke: #898781; stroke-width: 0.8"/>
      </g>
     </g>
     <g id="text_5">
      <!-- 2018 -->
      <g style="fill: #898781" transform="translate(273.085 358.564156) scale(0.1 -0.1)">
       <defs>
        <path id="DejaVuSans-1b" d="M 2034 2216 
Q 1584 2216 1326 1975 
Q 1069 1734 1069 1313 
Q 1069 891 1326 650 
Q 1584 409 2034 409 
Q 2484 409 2743 651 
Q 3003 894 3003 1313 
Q 3003 1734 2745 1975 
Q 2488 2216 2034 2216 
z
M 1403 2484 
Q 997 2584 770 2862 
Q 544 3141 544 3541 
Q 544 4100 942 4425 
Q 1341 4750 2034 4750 
Q 2731 4750 3128 4425 
Q 3525 4100 3525 3541 
Q 3525 3141 3298 2862 
Q 3072 2584 2669 2484 
Q 3125 2378 3379 2068 
Q 3634 1759 3634 1313 
Q 3634 634 3220 271 
Q 2806 -91 2034 -91 
Q 1263 -91 848 271 
Q 434 634 434 1313 
Q 434 1759 690 2068 
Q 947 2378 1403 2484 
z
M 1172 3481 
Q 1172 3119 1398 2916 
Q 1625 2713 2034 2713 
Q 2441 2713 2670 2916 
Q 2900 3119 2900 3481 
Q 2900 3844 2670 4047 
Q 2441 4250 2034 4250 
Q 1625 4250 1398 4047 
Q 1172 3844 1172 3481 
z
" transform="scale(0.015625)"/>
       </defs>
       <use xlink:href="#DejaVuSans-15"/>
       <use xlink:href="#DejaVuSans-13" transform="translate(63.625 0)"/>
       <use xlink:href="#DejaVuSans-14" transform="translate(127.25 0)"/>
       <use xlink:href="#DejaVuSans-1b" transform="translate(190.875 0)"/>
      </g>
     </g>
    </g>
    <g id="xtick_6">
     <g id="line2d_6">
      <g>
       <use xlink:href="#m2592628687" x="332.31" y="343.9665" style="fill: #898781; stroke: #898781; stroke-width: 0.8"/>
      </g>
     </g>
     <g id="text_6">
      <!-- 2019 -->
      <g style="fill: #898781" transform="translate(319.585 358.564156) scale(0.1 -0.1)">
       <defs>
        <path id="DejaVuSans-1c" d="M 703 97 
L 703 672 
Q 941 559 1184 500 
Q 1428 441 1663 441 
Q 2288 441 2617 861 
Q 2947 1281 2994 2138 
Q 2813 1869 2534 1725 
Q 2256 1581 1919 1581 
Q 1219 1581 811 2004 
Q 403 2428 403 3163 
Q 403 3881 828 4315 
Q 1253 4750 1959 4750 
Q 2769 4750 3195 4129 
Q 3622 3509 3622 2328 
Q 3622 1225 3098 567 
Q 2575 -91 1691 -91 
Q 1453 -91 1209 -44 
Q 966 3 703 97 
z
M 1959 2075 
Q 2384 2075 2632 2365 
Q 2881 2656 2881 3163 
Q 2881 3666 2632 3958 
Q 2384 4250 1959 4250 
Q 1534 4250 1286 3958 
Q 1038 3666 1038 3163 
Q 1038 2656 1286 2365 
Q 1534 2075 1959 2075 
z
" transform="scale(0.015625)"/>
       </defs>
       <use xlink:href="#DejaVuSans-15"/>
       <use xlink:href="#DejaVuSans-13" transform="translate(63.625 0)"/>
       <use xlink:href="#DejaVuSans-14" transform="translate(127.25 0)"/>
       <use xlink:href="#DejaVuSans-1c" transform="translate(190.875 0)"/>
      </g>
     </g>
    </g>
    <g id="xtick_7">
     <g id="line2d_7">
      <g>
       <use xlink:href="#m2592628687" x="378.81" y="343.9665" style="fill: #898781; stroke: #898781; stroke-width: 0.8"/>
      </g>
     </g>
     <g id="text_7">
      <!-- 2020 -->
      <g style="fill: #898781" transform="translate(366.085 358.564156) scale(0.1 -0.1)">
       <use xlink:href="#DejaVuSans-15"/>
       <use xlink:href="#DejaVuSans-13" transform="translate(63.625 0)"/>
       <use xlink:href="#DejaVuSans-15" transform="translate(127.25 0)"/>
       <use xlink:href="#DejaVuSans-13" transform="translate(190.875 0)"/>
      </g>
     </g>
    </g>
    <g id="xtick_8">
     <g id="line2d_8">
      <g>
       <use xlink:href="#m2592628687" x="425.31" y="343.9665" style="fill: #898781; stroke: #898781; stroke-width: 0.8"/>
      </g>
     </g>
     <g id="text_8">
      <!-- 2021 -->
      <g style="fill: #898781" transform="translate(412.585 358.564156) scale(0.1 -0.1)">
       <use xlink:href="#DejaVuSans-15"/>
       <use xlink:href="#DejaVuSans-13" transform="translate(63.625 0)"/>
       <use xlink:href="#DejaVuSans-15" transform="translate(127.25 0)"/>
       <use xlink:href="#DejaVuSans-14" transform="translate(190.875 0)"/>
      </g>
     </g>
    </g>
    <g id="xtick_9">
     <g id="line2d_9">
      <g>
       <use xlink:href="#m2592628687" x="471.81" y="343.9665" style="fill: #898781; stroke: #898781; stroke-width: 0.8"/>
      </g>
     </g>
     <g id="text_9">
      <!-- 2022 -->
      <g style="fill: #898781" transform="translate(459.085 358.564156) scale(0.1 -0.1)">
       <use xlink:href="#DejaVuSans-15"/>
       <use xlink:href="#DejaVuSans-13" transform="translate(63.625 0)"/>
       <use xlink:href="#DejaVuSans-15" transform="translate(127.25 0)"/>
       <use xlink:href="#DejaVuSans-15" transform="translate(190.875 0)"/>
      </g>
     </g>
    </g>
    <g id="xtick_10">
     <g id="line2d_10">
      <g>
       <use xlink:href="#m2592628687" x="518.31" y="343.9665" style="fill: #898781; stroke: #898781; stroke-width: 0.8"/>
      </g>
     </g>
     <g id="text_10">
      <!-- 2023 -->
      <g style="fill: #898781" transform="translate(505.585 358.564156) scale(0.1 -0.1)">
       <defs>
        <path id="DejaVuSans-16" d="M 2597 2516 
Q 3050 2419 3304 2112 
Q 3559 1806 3559 1356 
Q 3559 666 3084 287 
Q 2609 -91 1734 -91 
Q 1441 -91 1130 -33 
Q 819 25 488 141 
L 488 750 
Q 750 597 1062 519 
Q 1375 441 1716 441 
Q 2309 441 2620 675 
Q 2931 909 2931 1356 
Q 2931 1769 2642 2001 
Q 2353 2234 1838 2234 
L 1294 2234 
L 1294 2753 
L 1863 2753 
Q 2328 2753 2575 2939 
Q 2822 3125 2822 3475 
Q 2822 3834 2567 4026 
Q 2313 4219 1838 4219 
Q 1578 4219 1281 4162 
Q 984 4106 628 3988 
L 628 4550 
Q 988 4650 1302 4700 
Q 1616 4750 1894 4750 
Q 2613 4750 3031 4423 
Q 3450 4097 3450 3541 
Q 3450 3153 3228 2886 
Q 3006 2619 2597 2516 
z
" transform="scale(0.015625)"/>
       </defs>
       <use xlink:href="#DejaVuSans-15"/>
       <use xlink:href="#DejaVuSans-13" transform="translate(63.625 0)"/>
       <use xlink:href="#DejaVuSans-15" transform="translate(127.25 0)"/>
       <use xlink:href="#DejaVuSans-16" transform="translate(190.875 0)"/>
      </g>
     </g>
    </g>
    <g id="xtick_11">
     <g id="line2d_11">
      <g>
       <use xlink:href="#m2592628687" x="564.81" y="343.9665" style="fill: #898781; stroke: #898781; stroke-width: 0.8"/>
      </g>
     </g>
     <g id="text_11">
      <!-- 2024 -->
      <g style="fill: #898781" transform="translate(552.085 358.564156) scale(0.1 -0.1)">
       <use xlink:href="#DejaVuSans-15"/>
       <use xlink:href="#DejaVuSans-13" transform="translate(63.625 0)"/>
       <use xlink:href="#DejaVuSans-15" transform="translate(127.25 0)"/>
       <use xlink:href="#DejaVuSans-17" transform="translate(190.875 0)"/>
      </g>
     </g>
    </g>
   </g>
   <g id="matplotlib.axis_2">
    <g id="ytick_1">
     <g id="line2d_12">
      <path d="M 85.86 318.193909 
L 615.96 318.193909 
" clip-path="url(#p56951870a9)" style="fill: none; stroke: #e1e0d9; stroke-opacity: 0.9; stroke-width: 0.7; stroke-linecap: square"/>
     </g>
     <g id="line2d_13">
      <defs>
       <path id="md18887cd07" d="M 0 0 
L -3.5 0 
" style="stroke: #898781; stroke-width: 0.8"/>
      </defs>
      <g>
       <use xlink:href="#md18887cd07" x="85.86" y="318.193909" style="fill: #898781; stroke: #898781; stroke-width: 0.8"/>
      </g>
     </g>
     <g id="text_12">
      <!-- 80 -->
      <g style="fill: #898781" transform="translate(66.135 321.992737) scale(0.1 -0.1)">
       <use xlink:href="#DejaVuSans-1b"/>
       <use xlink:href="#DejaVuSans-13" transform="translate(63.625 0)"/>
      </g>
     </g>
    </g>
    <g id="ytick_2">
     <g id="line2d_14">
      <path d="M 85.86 266.425164 
L 615.96 266.425164 
" clip-path="url(#p56951870a9)" style="fill: none; stroke: #e1e0d9; stroke-opacity: 0.9; stroke-width: 0.7; stroke-linecap: square"/>
     </g>
     <g id="line2d_15">
      <g>
       <use xlink:href="#md18887cd07" x="85.86" y="266.425164" style="fill: #898781; stroke: #898781; stroke-width: 0.8"/>
      </g>
     </g>
     <g id="text_13">
      <!-- 100 -->
      <g style="fill: #898781" transform="translate(59.7725 270.223992) scale(0.1 -0.1)">
       <use xlink:href="#DejaVuSans-14"/>
       <use xlink:href="#DejaVuSans-13" transform="translate(63.625 0)"/>
       <use xlink:href="#DejaVuSans-13" transform="translate(127.25 0)"/>
      </g>
     </g>
    </g>
    <g id="ytick_3">
     <g id="line2d_16">
      <path d="M 85.86 214.656419 
L 615.96 214.656419 
" clip-path="url(#p56951870a9)" style="fill: none; stroke: #e1e0d9; stroke-opacity: 0.9; stroke-width: 0.7; stroke-linecap: square"/>
     </g>
     <g id="line2d_17">
      <g>
       <use xlink:href="#md18887cd07" x="85.86" y="214.656419" style="fill: #898781; stroke: #898781; stroke-width: 0.8"/>
      </g>
     </g>
     <g id="text_14">
      <!-- 120 -->
      <g style="fill: #898781" transform="translate(59.7725 218.455247) scale(0.1 -0.1)">
       <use xlink:href="#DejaVuSans-14"/>
       <use xlink:href="#DejaVuSans-15" transform="translate(63.625 0)"/>
       <use xlink:href="#DejaVuSans-13" transform="translate(127.25 0)"/>
      </g>
     </g>
    </g>
    <g id="ytick_4">
     <g id="line2d_18">
      <path d="M 85.86 162.887673 
L 615.96 162.887673 
" clip-path="url(#p56951870a9)" style="fill: none; stroke: #e1e0d9; stroke-opacity: 0.9; stroke-width: 0.7; stroke-linecap: square"/>
     </g>
     <g id="line2d_19">
      <g>
       <use xlink:href="#md18887cd07" x="85.86" y="162.887673" style="fill: #898781; stroke: #898781; stroke-width: 0.8"/>
      </g>
     </g>
     <g id="text_15">
      <!-- 140 -->
      <g style="fill: #898781" transform="translate(59.7725 166.686501) scale(0.1 -0.1)">
       <use xlink:href="#DejaVuSans-14"/>
       <use xlink:href="#DejaVuSans-17" transform="translate(63.625 0)"/>
       <use xlink:href="#DejaVuSans-13" transform="translate(127.25 0)"/>
      </g>
     </g>
    </g>
    <g id="ytick_5">
     <g id="line2d_20">
      <path d="M 85.86 111.118928 
L 615.96 111.118928 
" clip-path="url(#p56951870a9)" style="fill: none; stroke: #e1e0d9; stroke-opacity: 0.9; stroke-width: 0.7; stroke-linecap: square"/>
     </g>
     <g id="line2d_21">
      <g>
       <use xlink:href="#md18887cd07" x="85.86" y="111.118928" style="fill: #898781; stroke: #898781; stroke-width: 0.8"/>
      </g>
     </g>
     <g id="text_16">
      <!-- 160 -->
      <g style="fill: #898781" transform="translate(59.7725 114.917756) scale(0.1 -0.1)">
       <use xlink:href="#DejaVuSans-14"/>
       <use xlink:href="#DejaVuSans-19" transform="translate(63.625 0)"/>
       <use xlink:href="#DejaVuSans-13" transform="translate(127.25 0)"/>
      </g>
     </g>
    </g>
    <g id="ytick_6">
     <g id="line2d_22">
      <path d="M 85.86 59.350183 
L 615.96 59.350183 
" clip-path="url(#p56951870a9)" style="fill: none; stroke: #e1e0d9; stroke-opacity: 0.9; stroke-width: 0.7; stroke-linecap: square"/>
     </g>
     <g id="line2d_23">
      <g>
       <use xlink:href="#md18887cd07" x="85.86" y="59.350183" style="fill: #898781; stroke: #898781; stroke-width: 0.8"/>
      </g>
     </g>
     <g id="text_17">
      <!-- 180 -->
      <g style="fill: #898781" transform="translate(59.7725 63.149011) scale(0.1 -0.1)">
       <use xlink:href="#DejaVuSans-14"/>
       <use xlink:href="#DejaVuSans-1b" transform="translate(63.625 0)"/>
       <use xlink:href="#DejaVuSans-13" transform="translate(127.25 0)"/>
      </g>
     </g>
    </g>
    <g id="text_18">
     <!-- индекс, 2014 = 100 -->
     <g style="fill: #52514e" transform="translate(53.370156 240.370438) rotate(-90) scale(0.1 -0.1)">
      <defs>
       <path id="DejaVuSans-3cc" d="M 3578 3500 
L 3578 0 
L 3006 0 
L 3006 2809 
L 1319 0 
L 581 0 
L 581 3500 
L 1153 3500 
L 1153 697 
L 2838 3500 
L 3578 3500 
z
" transform="scale(0.015625)"/>
       <path id="DejaVuSans-3d1" d="M 581 3500 
L 1159 3500 
L 1159 2072 
L 3025 2072 
L 3025 3500 
L 3603 3500 
L 3603 0 
L 3025 0 
L 3025 1613 
L 1159 1613 
L 1159 0 
L 581 0 
L 581 3500 
z
" transform="scale(0.015625)"/>
       <path id="DejaVuSans-3c8" d="M 1384 459 
L 3053 459 
L 3053 3041 
L 1844 3041 
L 1844 2603 
Q 1844 1316 1475 628 
L 1384 459 
z
M 550 459 
Q 834 584 959 850 
Q 1266 1509 1266 2838 
L 1266 3500 
L 3631 3500 
L 3631 459 
L 4091 459 
L 4091 -884 
L 3631 -884 
L 3631 0 
L 794 0 
L 794 -884 
L 334 -884 
L 334 459 
L 550 459 
z
" transform="scale(0.015625)"/>
       <path id="DejaVuSans-3c9" d="M 3597 1894 
L 3597 1613 
L 953 1613 
Q 991 1019 1311 708 
Q 1631 397 2203 397 
Q 2534 397 2845 478 
Q 3156 559 3463 722 
L 3463 178 
Q 3153 47 2828 -22 
Q 2503 -91 2169 -91 
Q 1331 -91 842 396 
Q 353 884 353 1716 
Q 353 2575 817 3079 
Q 1281 3584 2069 3584 
Q 2775 3584 3186 3129 
Q 3597 2675 3597 1894 
z
M 3022 2063 
Q 3016 2534 2758 2815 
Q 2500 3097 2075 3097 
Q 1594 3097 1305 2825 
Q 1016 2553 972 2059 
L 3022 2063 
z
" transform="scale(0.015625)"/>
       <path id="DejaVuSans-3ce" d="M 581 3500 
L 1153 3500 
L 1153 1856 
L 2775 3500 
L 3481 3500 
L 2144 2147 
L 3653 0 
L 3009 0 
L 1769 1766 
L 1153 1141 
L 1153 0 
L 581 0 
L 581 3500 
z
" transform="scale(0.015625)"/>
       <path id="DejaVuSans-3d5" d="M 3122 3366 
L 3122 2828 
Q 2878 2963 2633 3030 
Q 2388 3097 2138 3097 
Q 1578 3097 1268 2742 
Q 959 2388 959 1747 
Q 959 1106 1268 751 
Q 1578 397 2138 397 
Q 2388 397 2633 464 
Q 2878 531 3122 666 
L 3122 134 
Q 2881 22 2623 -34 
Q 2366 -91 2075 -91 
Q 1284 -91 818 406 
Q 353 903 353 1747 
Q 353 2603 823 3093 
Q 1294 3584 2113 3584 
Q 2378 3584 2631 3529 
Q 2884 3475 3122 3366 
z
" transform="scale(0.015625)"/>
       <path id="DejaVuSans-f" d="M 750 794 
L 1409 794 
L 1409 256 
L 897 -744 
L 494 -744 
L 750 256 
L 750 794 
z
" transform="scale(0.015625)"/>
       <path id="DejaVuSans-3" transform="scale(0.015625)"/>
       <path id="DejaVuSans-20" d="M 678 2906 
L 4684 2906 
L 4684 2381 
L 678 2381 
L 678 2906 
z
M 678 1631 
L 4684 1631 
L 4684 1100 
L 678 1100 
L 678 1631 
z
" transform="scale(0.015625)"/>
      </defs>
      <use xlink:href="#DejaVuSans-3cc"/>
      <use xlink:href="#DejaVuSans-3d1" transform="translate(64.984375 0)"/>
      <use xlink:href="#DejaVuSans-3c8" transform="translate(130.359375 0)"/>
      <use xlink:href="#DejaVuSans-3c9" transform="translate(199.5 0)"/>
      <use xlink:href="#DejaVuSans-3ce" transform="translate(261.03125 0)"/>
      <use xlink:href="#DejaVuSans-3d5" transform="translate(321.4375 0)"/>
      <use xlink:href="#DejaVuSans-f" transform="translate(376.421875 0)"/>
      <use xlink:href="#DejaVuSans-3" transform="translate(408.203125 0)"/>
      <use xlink:href="#DejaVuSans-15" transform="translate(439.984375 0)"/>
      <use xlink:href="#DejaVuSans-13" transform="translate(503.609375 0)"/>
      <use xlink:href="#DejaVuSans-14" transform="translate(567.234375 0)"/>
      <use xlink:href="#DejaVuSans-17" transform="translate(630.859375 0)"/>
      <use xlink:href="#DejaVuSans-3" transform="translate(694.484375 0)"/>
      <use xlink:href="#DejaVuSans-20" transform="translate(726.265625 0)"/>
      <use xlink:href="#DejaVuSans-3" transform="translate(810.0625 0)"/>
      <use xlink:href="#DejaVuSans-14" transform="translate(841.84375 0)"/>
      <use xlink:href="#DejaVuSans-13" transform="translate(905.46875 0)"/>
      <use xlink:href="#DejaVuSans-13" transform="translate(969.09375 0)"/>
     </g>
    </g>
   </g>
   <g id="line2d_24">
    <path d="M 85.86 266.425164 
L 615.96 266.425164 
" clip-path="url(#p56951870a9)" style="fill: none; stroke: #c3c2b7; stroke-linecap: square"/>
   </g>
   <g id="patch_4">
    <path d="M 85.86 343.9665 
L 85.86 33.5025 
" style="fill: none; stroke: #c3c2b7; stroke-width: 0.8; stroke-linejoin: miter; stroke-linecap: square"/>
   </g>
   <g id="patch_5">
    <path d="M 85.86 343.9665 
L 615.96 343.9665 
" style="fill: none; stroke: #c3c2b7; stroke-width: 0.8; stroke-linejoin: miter; stroke-linecap: square"/>
   </g>
   <g id="line2d_25">
    <path d="M 99.81 266.425164 
L 146.31 283.760537 
L 192.81 301.464321 
L 239.31 303.03967 
L 285.81 301.870992 
L 332.31 292.890739 
L 378.81 314.275691 
L 425.31 329.8545 
L 471.81 319.847764 
L 518.31 313.970878 
L 564.81 321.183824 
" clip-path="url(#p56951870a9)" style="fill: none; stroke: #2a78d6; stroke-width: 2; stroke-linecap: square"/>
    <defs>
     <path id="me0069d8f68" d="M 0 2.75 
C 0.729309 2.75 1.428845 2.460243 1.944544 1.944544 
C 2.460243 1.428845 2.75 0.729309 2.75 0 
C 2.75 -0.729309 2.460243 -1.428845 1.944544 -1.944544 
C 1.428845 -2.460243 0.729309 -2.75 0 -2.75 
C -0.729309 -2.75 -1.428845 -2.460243 -1.944544 -1.944544 
C -2.460243 -1.428845 -2.75 -0.729309 -2.75 0 
C -2.75 0.729309 -2.460243 1.428845 -1.944544 1.944544 
C -1.428845 2.460243 -0.729309 2.75 0 2.75 
z
" style="stroke: #fcfcfb; stroke-width: 1.6"/>
    </defs>
    <g clip-path="url(#p56951870a9)">
     <use xlink:href="#me0069d8f68" x="99.81" y="266.425164" style="fill: #2a78d6; stroke: #fcfcfb; stroke-width: 1.6"/>
     <use xlink:href="#me0069d8f68" x="146.31" y="283.760537" style="fill: #2a78d6; stroke: #fcfcfb; stroke-width: 1.6"/>
     <use xlink:href="#me0069d8f68" x="192.81" y="301.464321" style="fill: #2a78d6; stroke: #fcfcfb; stroke-width: 1.6"/>
     <use xlink:href="#me0069d8f68" x="239.31" y="303.03967" style="fill: #2a78d6; stroke: #fcfcfb; stroke-width: 1.6"/>
     <use xlink:href="#me0069d8f68" x="285.81" y="301.870992" style="fill: #2a78d6; stroke: #fcfcfb; stroke-width: 1.6"/>
     <use xlink:href="#me0069d8f68" x="332.31" y="292.890739" style="fill: #2a78d6; stroke: #fcfcfb; stroke-width: 1.6"/>
     <use xlink:href="#me0069d8f68" x="378.81" y="314.275691" style="fill: #2a78d6; stroke: #fcfcfb; stroke-width: 1.6"/>
     <use xlink:href="#me0069d8f68" x="425.31" y="329.8545" style="fill: #2a78d6; stroke: #fcfcfb; stroke-width: 1.6"/>
     <use xlink:href="#me0069d8f68" x="471.81" y="319.847764" style="fill: #2a78d6; stroke: #fcfcfb; stroke-width: 1.6"/>
     <use xlink:href="#me0069d8f68" x="518.31" y="313.970878" style="fill: #2a78d6; stroke: #fcfcfb; stroke-width: 1.6"/>
     <use xlink:href="#me0069d8f68" x="564.81" y="321.183824" style="fill: #2a78d6; stroke: #fcfcfb; stroke-width: 1.6"/>
    </g>
   </g>
   <g id="text_19">
    <!-- 79 -->
    <g style="fill: #0b0b0b" transform="translate(572.81 323.78148) scale(0.1 -0.1)">
     <defs>
      <path id="DejaVuSans-Bold-1a" d="M 428 4666 
L 3944 4666 
L 3944 3988 
L 2125 0 
L 953 0 
L 2675 3781 
L 428 3781 
L 428 4666 
z
" transform="scale(0.015625)"/>
      <path id="DejaVuSans-Bold-1c" d="M 641 103 
L 641 966 
Q 928 831 1190 764 
Q 1453 697 1709 697 
Q 2247 697 2547 995 
Q 2847 1294 2900 1881 
Q 2688 1725 2447 1647 
Q 2206 1569 1925 1569 
Q 1209 1569 770 1986 
Q 331 2403 331 3084 
Q 331 3838 820 4291 
Q 1309 4744 2131 4744 
Q 3044 4744 3544 4128 
Q 4044 3513 4044 2388 
Q 4044 1231 3459 570 
Q 2875 -91 1856 -91 
Q 1528 -91 1228 -42 
Q 928 6 641 103 
z
M 2125 2350 
Q 2441 2350 2600 2554 
Q 2759 2759 2759 3169 
Q 2759 3575 2600 3781 
Q 2441 3988 2125 3988 
Q 1809 3988 1650 3781 
Q 1491 3575 1491 3169 
Q 1491 2759 1650 2554 
Q 1809 2350 2125 2350 
z
" transform="scale(0.015625)"/>
     </defs>
     <use xlink:href="#DejaVuSans-Bold-1a"/>
     <use xlink:href="#DejaVuSans-Bold-1c" transform="translate(69.578125 0)"/>
    </g>
   </g>
   <g id="line2d_26">
    <path d="M 99.81 266.425164 
L 146.31 256.227803 
L 192.81 264.422111 
L 239.31 241.499472 
L 285.81 236.052667 
L 332.31 219.33735 
L 378.81 207.613598 
L 425.31 210.52713 
L 471.81 189.152305 
L 518.31 170.776703 
L 564.81 148.662783 
" clip-path="url(#p56951870a9)" style="fill: none; stroke: #eb6834; stroke-width: 2; stroke-linecap: square"/>
    <defs>
     <path id="m7c193b17e5" d="M 0 2.75 
C 0.729309 2.75 1.428845 2.460243 1.944544 1.944544 
C 2.460243 1.428845 2.75 0.729309 2.75 0 
C 2.75 -0.729309 2.460243 -1.428845 1.944544 -1.944544 
C 1.428845 -2.460243 0.729309 -2.75 0 -2.75 
C -0.729309 -2.75 -1.428845 -2.460243 -1.944544 -1.944544 
C -2.460243 -1.428845 -2.75 -0.729309 -2.75 0 
C -2.75 0.729309 -2.460243 1.428845 -1.944544 1.944544 
C -1.428845 2.460243 -0.729309 2.75 0 2.75 
z
" style="stroke: #fcfcfb; stroke-width: 1.6"/>
    </defs>
    <g clip-path="url(#p56951870a9)">
     <use xlink:href="#m7c193b17e5" x="99.81" y="266.425164" style="fill: #eb6834; stroke: #fcfcfb; stroke-width: 1.6"/>
     <use xlink:href="#m7c193b17e5" x="146.31" y="256.227803" style="fill: #eb6834; stroke: #fcfcfb; stroke-width: 1.6"/>
     <use xlink:href="#m7c193b17e5" x="192.81" y="264.422111" style="fill: #eb6834; stroke: #fcfcfb; stroke-width: 1.6"/>
     <use xlink:href="#m7c193b17e5" x="239.31" y="241.499472" style="fill: #eb6834; stroke: #fcfcfb; stroke-width: 1.6"/>
     <use xlink:href="#m7c193b17e5" x="285.81" y="236.052667" style="fill: #eb6834; stroke: #fcfcfb; stroke-width: 1.6"/>
     <use xlink:href="#m7c193b17e5" x="332.31" y="219.33735" style="fill: #eb6834; stroke: #fcfcfb; stroke-width: 1.6"/>
     <use xlink:href="#m7c193b17e5" x="378.81" y="207.613598" style="fill: #eb6834; stroke: #fcfcfb; stroke-width: 1.6"/>
     <use xlink:href="#m7c193b17e5" x="425.31" y="210.52713" style="fill: #eb6834; stroke: #fcfcfb; stroke-width: 1.6"/>
     <use xlink:href="#m7c193b17e5" x="471.81" y="189.152305" style="fill: #eb6834; stroke: #fcfcfb; stroke-width: 1.6"/>
     <use xlink:href="#m7c193b17e5" x="518.31" y="170.776703" style="fill: #eb6834; stroke: #fcfcfb; stroke-width: 1.6"/>
     <use xlink:href="#m7c193b17e5" x="564.81" y="148.662783" style="fill: #eb6834; stroke: #fcfcfb; stroke-width: 1.6"/>
    </g>
   </g>
   <g id="text_20">
    <!-- 145 -->
    <g style="fill: #0b0b0b" transform="translate(572.81 151.260439) scale(0.1 -0.1)">
     <defs>
      <path id="DejaVuSans-Bold-14" d="M 750 831 
L 1813 831 
L 1813 3847 
L 722 3622 
L 722 4441 
L 1806 4666 
L 2950 4666 
L 2950 831 
L 4013 831 
L 4013 0 
L 750 0 
L 750 831 
z
" transform="scale(0.015625)"/>
      <path id="DejaVuSans-Bold-17" d="M 2356 3675 
L 1038 1722 
L 2356 1722 
L 2356 3675 
z
M 2156 4666 
L 3494 4666 
L 3494 1722 
L 4159 1722 
L 4159 850 
L 3494 850 
L 3494 0 
L 2356 0 
L 2356 850 
L 288 850 
L 288 1881 
L 2156 4666 
z
" transform="scale(0.015625)"/>
      <path id="DejaVuSans-Bold-18" d="M 678 4666 
L 3669 4666 
L 3669 3781 
L 1638 3781 
L 1638 3059 
Q 1775 3097 1914 3117 
Q 2053 3138 2203 3138 
Q 3056 3138 3531 2711 
Q 4006 2284 4006 1522 
Q 4006 766 3489 337 
Q 2972 -91 2053 -91 
Q 1656 -91 1267 -14 
Q 878 63 494 219 
L 494 1166 
Q 875 947 1217 837 
Q 1559 728 1863 728 
Q 2300 728 2551 942 
Q 2803 1156 2803 1522 
Q 2803 1891 2551 2103 
Q 2300 2316 1863 2316 
Q 1603 2316 1309 2248 
Q 1016 2181 678 2041 
L 678 4666 
z
" transform="scale(0.015625)"/>
     </defs>
     <use xlink:href="#DejaVuSans-Bold-14"/>
     <use xlink:href="#DejaVuSans-Bold-17" transform="translate(69.578125 0)"/>
     <use xlink:href="#DejaVuSans-Bold-18" transform="translate(139.15625 0)"/>
    </g>
   </g>
   <g id="line2d_27">
    <path d="M 99.81 266.425164 
L 146.31 236.916141 
L 192.81 223.583574 
L 239.31 194.745598 
L 285.81 190.163657 
L 332.31 184.494771 
L 378.81 135.573489 
L 425.31 108.365458 
L 471.81 101.740545 
L 518.31 91.009818 
L 564.81 47.6145 
" clip-path="url(#p56951870a9)" style="fill: none; stroke: #1baf7a; stroke-width: 2; stroke-linecap: square"/>
    <defs>
     <path id="m78e94a38a1" d="M 0 2.75 
C 0.729309 2.75 1.428845 2.460243 1.944544 1.944544 
C 2.460243 1.428845 2.75 0.729309 2.75 0 
C 2.75 -0.729309 2.460243 -1.428845 1.944544 -1.944544 
C 1.428845 -2.460243 0.729309 -2.75 0 -2.75 
C -0.729309 -2.75 -1.428845 -2.460243 -1.944544 -1.944544 
C -2.460243 -1.428845 -2.75 -0.729309 -2.75 0 
C -2.75 0.729309 -2.460243 1.428845 -1.944544 1.944544 
C -1.428845 2.460243 -0.729309 2.75 0 2.75 
z
" style="stroke: #fcfcfb; stroke-width: 1.6"/>
    </defs>
    <g clip-path="url(#p56951870a9)">
     <use xlink:href="#m78e94a38a1" x="99.81" y="266.425164" style="fill: #1baf7a; stroke: #fcfcfb; stroke-width: 1.6"/>
     <use xlink:href="#m78e94a38a1" x="146.31" y="236.916141" style="fill: #1baf7a; stroke: #fcfcfb; stroke-width: 1.6"/>
     <use xlink:href="#m78e94a38a1" x="192.81" y="223.583574" style="fill: #1baf7a; stroke: #fcfcfb; stroke-width: 1.6"/>
     <use xlink:href="#m78e94a38a1" x="239.31" y="194.745598" style="fill: #1baf7a; stroke: #fcfcfb; stroke-width: 1.6"/>
     <use xlink:href="#m78e94a38a1" x="285.81" y="190.163657" style="fill: #1baf7a; stroke: #fcfcfb; stroke-width: 1.6"/>
     <use xlink:href="#m78e94a38a1" x="332.31" y="184.494771" style="fill: #1baf7a; stroke: #fcfcfb; stroke-width: 1.6"/>
     <use xlink:href="#m78e94a38a1" x="378.81" y="135.573489" style="fill: #1baf7a; stroke: #fcfcfb; stroke-width: 1.6"/>
     <use xlink:href="#m78e94a38a1" x="425.31" y="108.365458" style="fill: #1baf7a; stroke: #fcfcfb; stroke-width: 1.6"/>
     <use xlink:href="#m78e94a38a1" x="471.81" y="101.740545" style="fill: #1baf7a; stroke: #fcfcfb; stroke-width: 1.6"/>
     <use xlink:href="#m78e94a38a1" x="518.31" y="91.009818" style="fill: #1baf7a; stroke: #fcfcfb; stroke-width: 1.6"/>
     <use xlink:href="#m78e94a38a1" x="564.81" y="47.6145" style="fill: #1baf7a; stroke: #fcfcfb; stroke-width: 1.6"/>
    </g>
   </g>
   <g id="text_21">
    <!-- 185 -->
    <g style="fill: #0b0b0b" transform="translate(572.81 50.212156) scale(0.1 -0.1)">
     <defs>
      <path id="DejaVuSans-Bold-1b" d="M 2228 2088 
Q 1891 2088 1709 1903 
Q 1528 1719 1528 1375 
Q 1528 1031 1709 848 
Q 1891 666 2228 666 
Q 2563 666 2741 848 
Q 2919 1031 2919 1375 
Q 2919 1722 2741 1905 
Q 2563 2088 2228 2088 
z
M 1350 2484 
Q 925 2613 709 2878 
Q 494 3144 494 3541 
Q 494 4131 934 4440 
Q 1375 4750 2228 4750 
Q 3075 4750 3515 4442 
Q 3956 4134 3956 3541 
Q 3956 3144 3739 2878 
Q 3522 2613 3097 2484 
Q 3572 2353 3814 2058 
Q 4056 1763 4056 1313 
Q 4056 619 3595 264 
Q 3134 -91 2228 -91 
Q 1319 -91 855 264 
Q 391 619 391 1313 
Q 391 1763 633 2058 
Q 875 2353 1350 2484 
z
M 1631 3419 
Q 1631 3141 1786 2991 
Q 1941 2841 2228 2841 
Q 2509 2841 2662 2991 
Q 2816 3141 2816 3419 
Q 2816 3697 2662 3845 
Q 2509 3994 2228 3994 
Q 1941 3994 1786 3844 
Q 1631 3694 1631 3419 
z
" transform="scale(0.015625)"/>
     </defs>
     <use xlink:href="#DejaVuSans-Bold-14"/>
     <use xlink:href="#DejaVuSans-Bold-1b" transform="translate(69.578125 0)"/>
     <use xlink:href="#DejaVuSans-Bold-18" transform="translate(139.15625 0)"/>
    </g>
   </g>
   <g id="text_22">
    <!--  камсув -->
    <g style="fill: #898781" transform="translate(408.224336 40.811338) scale(0.085 -0.085)">
     <defs>
      <path id="DejaVuSans-3c4" d="M 2194 1759 
Q 1497 1759 1228 1600 
Q 959 1441 959 1056 
Q 959 750 1161 570 
Q 1363 391 1709 391 
Q 2188 391 2477 730 
Q 2766 1069 2766 1631 
L 2766 1759 
L 2194 1759 
z
M 3341 1997 
L 3341 0 
L 2766 0 
L 2766 531 
Q 2569 213 2275 61 
Q 1981 -91 1556 -91 
Q 1019 -91 701 211 
Q 384 513 384 1019 
Q 384 1609 779 1909 
Q 1175 2209 1959 2209 
L 2766 2209 
L 2766 2266 
Q 2766 2663 2505 2880 
Q 2244 3097 1772 3097 
Q 1472 3097 1187 3025 
Q 903 2953 641 2809 
L 641 3341 
Q 956 3463 1253 3523 
Q 1550 3584 1831 3584 
Q 2591 3584 2966 3190 
Q 3341 2797 3341 1997 
z
" transform="scale(0.015625)"/>
      <path id="DejaVuSans-3d0" d="M 581 3500 
L 1422 3500 
L 2416 1156 
L 3413 3500 
L 4247 3500 
L 4247 0 
L 3669 0 
L 3669 2950 
L 2703 672 
L 2128 672 
L 1159 2950 
L 1159 0 
L 581 0 
L 581 3500 
z
" transform="scale(0.015625)"/>
      <path id="DejaVuSans-3d7" d="M 2059 -325 
Q 1816 -950 1584 -1140 
Q 1353 -1331 966 -1331 
L 506 -1331 
L 506 -850 
L 844 -850 
Q 1081 -850 1212 -737 
Q 1344 -625 1503 -206 
L 1606 56 
L 191 3500 
L 800 3500 
L 1894 763 
L 2988 3500 
L 3597 3500 
L 2059 -325 
z
" transform="scale(0.015625)"/>
      <path id="DejaVuSans-3c6" d="M 1156 1613 
L 1156 459 
L 1975 459 
Q 2369 459 2575 607 
Q 2781 756 2781 1038 
Q 2781 1319 2575 1466 
Q 2369 1613 1975 1613 
L 1156 1613 
z
M 1156 3041 
L 1156 2072 
L 1913 2072 
Q 2238 2072 2444 2201 
Q 2650 2331 2650 2563 
Q 2650 2794 2444 2917 
Q 2238 3041 1913 3041 
L 1156 3041 
z
M 581 3500 
L 1950 3500 
Q 2566 3500 2897 3275 
Q 3228 3050 3228 2634 
Q 3228 2313 3059 2123 
Q 2891 1934 2559 1888 
Q 2956 1813 3175 1575 
Q 3394 1338 3394 981 
Q 3394 513 3033 256 
Q 2672 0 2003 0 
L 581 0 
L 581 3500 
z
" transform="scale(0.015625)"/>
     </defs>
     <use xlink:href="#DejaVuSans-3"/>
     <use xlink:href="#DejaVuSans-3ce" transform="translate(31.78125 0)"/>
     <use xlink:href="#DejaVuSans-3c4" transform="translate(92.1875 0)"/>
     <use xlink:href="#DejaVuSans-3d0" transform="translate(153.46875 0)"/>
     <use xlink:href="#DejaVuSans-3d5" transform="translate(228.90625 0)"/>
     <use xlink:href="#DejaVuSans-3d7" transform="translate(283.890625 0)"/>
     <use xlink:href="#DejaVuSans-3c6" transform="translate(343.078125 0)"/>
    </g>
    <!--  йил -->
    <g style="fill: #898781" transform="translate(415.718945 51.012998) scale(0.085 -0.085)">
     <defs>
      <path id="DejaVuSans-3cd" d="M 3578 3500 
L 3578 0 
L 3006 0 
L 3006 2809 
L 1319 0 
L 581 0 
L 581 3500 
L 1153 3500 
L 1153 697 
L 2838 3500 
L 3578 3500 
z
M 1103 4862 
L 1472 4862 
Q 1506 4628 1657 4510 
Q 1809 4393 2081 4393 
Q 2350 4393 2500 4509 
Q 2650 4625 2690 4862 
L 3059 4862 
Q 3028 4415 2781 4190 
Q 2534 3965 2081 3965 
Q 1628 3965 1381 4190 
Q 1134 4415 1103 4862 
z
" transform="scale(0.015625)"/>
      <path id="DejaVuSans-3cf" d="M 238 0 
L 238 478 
Q 806 566 981 959 
Q 1194 1513 1194 2928 
L 1194 3500 
L 3559 3500 
L 3559 0 
L 2984 0 
L 2984 3041 
L 1769 3041 
L 1769 2694 
Q 1769 1344 1494 738 
Q 1200 91 238 0 
z
" transform="scale(0.015625)"/>
     </defs>
     <use xlink:href="#DejaVuSans-3"/>
     <use xlink:href="#DejaVuSans-3cd" transform="translate(31.78125 0)"/>
     <use xlink:href="#DejaVuSans-3cc" transform="translate(96.765625 0)"/>
     <use xlink:href="#DejaVuSans-3cf" transform="translate(161.75 0)"/>
    </g>
   </g>
   <g id="text_23">
    <!-- Вилоят бўйича, 2014 = 100 · инфляция таъсири 2018 йил солиштирма нархига келтириб чиқарилган -->
    <g style="fill: #52514e" transform="translate(85.86 26.563313) scale(0.095 -0.095)">
     <defs>
      <path id="DejaVuSans-3a6" d="M 1259 2228 
L 1259 519 
L 2272 519 
Q 2781 519 3026 730 
Q 3272 941 3272 1375 
Q 3272 1813 3026 2020 
Q 2781 2228 2272 2228 
L 1259 2228 
z
M 1259 4147 
L 1259 2741 
L 2194 2741 
Q 2656 2741 2882 2914 
Q 3109 3088 3109 3444 
Q 3109 3797 2882 3972 
Q 2656 4147 2194 4147 
L 1259 4147 
z
M 628 4666 
L 2241 4666 
Q 2963 4666 3353 4366 
Q 3744 4066 3744 3513 
Q 3744 3084 3544 2831 
Q 3344 2578 2956 2516 
Q 3422 2416 3680 2098 
Q 3938 1781 3938 1306 
Q 3938 681 3513 340 
Q 3088 0 2303 0 
L 628 0 
L 628 4666 
z
" transform="scale(0.015625)"/>
      <path id="DejaVuSans-3d2" d="M 1959 3097 
Q 1497 3097 1228 2736 
Q 959 2375 959 1747 
Q 959 1119 1226 758 
Q 1494 397 1959 397 
Q 2419 397 2687 759 
Q 2956 1122 2956 1747 
Q 2956 2369 2687 2733 
Q 2419 3097 1959 3097 
z
M 1959 3584 
Q 2709 3584 3137 3096 
Q 3566 2609 3566 1747 
Q 3566 888 3137 398 
Q 2709 -91 1959 -91 
Q 1206 -91 779 398 
Q 353 888 353 1747 
Q 353 2609 779 3096 
Q 1206 3584 1959 3584 
z
" transform="scale(0.015625)"/>
      <path id="DejaVuSans-3e3" d="M 1181 2491 
Q 1181 2231 1381 2084 
Q 1581 1938 1953 1938 
L 2728 1938 
L 2728 3041 
L 1953 3041 
Q 1581 3041 1381 2897 
Q 1181 2753 1181 2491 
z
M 363 0 
L 1431 1534 
Q 1069 1616 828 1830 
Q 588 2044 588 2491 
Q 588 2997 923 3248 
Q 1259 3500 1938 3500 
L 3306 3500 
L 3306 0 
L 2728 0 
L 2728 1478 
L 2013 1478 
L 981 0 
L 363 0 
z
" transform="scale(0.015625)"/>
      <path id="DejaVuSans-3d6" d="M 188 3500 
L 3541 3500 
L 3541 3041 
L 2147 3041 
L 2147 0 
L 1581 0 
L 1581 3041 
L 188 3041 
L 188 3500 
z
" transform="scale(0.015625)"/>
      <path id="DejaVuSans-3c5" d="M 1991 3584 
Q 2741 3584 3169 3096 
Q 3597 2609 3597 1747 
Q 3597 888 3169 398 
Q 2741 -91 1991 -91 
Q 1238 -91 822 384 
Q 406 859 384 1747 
L 366 2463 
Q 350 2834 350 2963 
Q 350 3463 531 3831 
Q 816 4409 1308 4659 
Q 1800 4909 2625 4916 
Q 3006 4919 3175 4972 
L 3334 4516 
Q 3181 4453 3041 4450 
L 2259 4397 
Q 1866 4369 1628 4231 
Q 1006 3866 947 3388 
L 925 3213 
Q 1331 3584 1991 3584 
z
M 1991 3097 
Q 1528 3097 1259 2736 
Q 991 2375 991 1747 
Q 991 1119 1258 758 
Q 1525 397 1991 397 
Q 2450 397 2719 759 
Q 2988 1122 2988 1747 
Q 2988 2369 2719 2733 
Q 2450 3097 1991 3097 
z
" transform="scale(0.015625)"/>
      <path id="DejaVuSans-3f2" d="M 2059 -325 
Q 1816 -950 1584 -1140 
Q 1353 -1331 966 -1331 
L 506 -1331 
L 506 -850 
L 844 -850 
Q 1081 -850 1212 -737 
Q 1344 -625 1503 -206 
L 1606 56 
L 191 3500 
L 800 3500 
L 1894 763 
L 2988 3500 
L 3597 3500 
L 2059 -325 
z
M 916 4862 
L 1285 4862 
Q 1319 4628 1470 4510 
Q 1622 4393 1894 4393 
Q 2163 4393 2313 4509 
Q 2463 4625 2503 4862 
L 2872 4862 
Q 2841 4415 2594 4190 
Q 2347 3965 1894 3965 
Q 1441 3965 1194 4190 
Q 947 4415 916 4862 
z
" transform="scale(0.015625)"/>
      <path id="DejaVuSans-3db" d="M 2625 0 
L 2625 1472 
L 1553 1472 
Q 1075 1472 756 1769 
Q 469 2038 469 2613 
L 469 3500 
L 1044 3500 
L 1044 2666 
Q 1044 2300 1206 2116 
Q 1372 1931 1697 1931 
L 2625 1931 
L 2625 3500 
L 3200 3500 
L 3200 0 
L 2625 0 
z
" transform="scale(0.015625)"/>
      <path id="DejaVuSans-79" d="M 684 2619 
L 1344 2619 
L 1344 1825 
L 684 1825 
L 684 2619 
z
" transform="scale(0.015625)"/>
      <path id="DejaVuSans-3d8" d="M 947 1747 
Q 947 1013 1173 702 
Q 1400 391 1784 391 
Q 2091 391 2447 916 
L 2447 2578 
Q 2091 3103 1784 3103 
Q 1400 3103 1173 2792 
Q 947 2481 947 1747 
z
M 2447 -1331 
L 2447 447 
Q 2269 153 2064 31 
Q 1859 -91 1600 -91 
Q 1078 -91 714 392 
Q 350 875 350 1734 
Q 350 2594 714 3089 
Q 1078 3584 1600 3584 
Q 1859 3584 2064 3465 
Q 2269 3347 2447 3053 
L 2447 4666 
L 3025 4666 
L 3025 3053 
Q 3203 3347 3408 3465 
Q 3613 3584 3872 3584 
Q 4394 3584 4758 3089 
Q 5122 2594 5122 1734 
Q 5122 875 4758 392 
Q 4394 -91 3872 -91 
Q 3613 -91 3408 31 
Q 3203 153 3025 447 
L 3025 -1331 
L 2447 -1331 
z
M 4525 1747 
Q 4525 2481 4298 2792 
Q 4072 3103 3688 3103 
Q 3381 3103 3025 2578 
L 3025 916 
Q 3381 391 3688 391 
Q 4072 391 4298 702 
Q 4525 1013 4525 1747 
z
" transform="scale(0.015625)"/>
      <path id="DejaVuSans-3da" d="M 3603 0 
L 581 0 
L 581 3500 
L 1159 3500 
L 1159 459 
L 3025 459 
L 3025 3500 
L 3603 3500 
L 3603 459 
L 4063 459 
L 4063 -884 
L 3603 -884 
L 3603 0 
z
" transform="scale(0.015625)"/>
      <path id="DejaVuSans-3de" d="M 2753 2072 
Q 3422 2072 3783 1817 
Q 4144 1563 4144 1038 
Q 4144 513 3783 256 
Q 3422 0 2753 0 
L 1328 0 
L 1328 3041 
L 194 3041 
L 194 3500 
L 1906 3500 
L 1906 2072 
L 2753 2072 
z
M 2728 1613 
L 1906 1613 
L 1906 459 
L 2728 459 
Q 3122 459 3326 607 
Q 3531 756 3531 1038 
Q 3531 1319 3326 1466 
Q 3122 1613 2728 1613 
z
" transform="scale(0.015625)"/>
      <path id="DejaVuSans-3d4" d="M 1159 525 
L 1159 -1331 
L 581 -1331 
L 581 3500 
L 1159 3500 
L 1159 2969 
Q 1341 3281 1617 3432 
Q 1894 3584 2278 3584 
Q 2916 3584 3314 3078 
Q 3713 2572 3713 1747 
Q 3713 922 3314 415 
Q 2916 -91 2278 -91 
Q 1894 -91 1617 61 
Q 1341 213 1159 525 
z
M 3116 1747 
Q 3116 2381 2855 2742 
Q 2594 3103 2138 3103 
Q 1681 3103 1420 2742 
Q 1159 2381 1159 1747 
Q 1159 1113 1420 752 
Q 1681 391 2138 391 
Q 2594 391 2855 752 
Q 3116 1113 3116 1747 
z
" transform="scale(0.015625)"/>
      <path id="DejaVuSans-3dc" d="M 3216 459 
L 4697 459 
L 4697 3500 
L 5275 3500 
L 5275 0 
L 581 0 
L 581 3500 
L 1159 3500 
L 1159 459 
L 2638 459 
L 2638 3500 
L 3216 3500 
L 3216 459 
z
" transform="scale(0.015625)"/>
      <path id="DejaVuSans-3d9" d="M 3513 3500 
L 2247 1797 
L 3578 0 
L 2900 0 
L 1881 1375 
L 863 0 
L 184 0 
L 1544 1831 
L 300 3500 
L 978 3500 
L 1906 2253 
L 2834 3500 
L 3513 3500 
z
" transform="scale(0.015625)"/>
      <path id="DejaVuSans-3c7" d="M 581 0 
L 581 3500 
L 3050 3500 
L 3050 3041 
L 1159 3041 
L 1159 0 
L 581 0 
z
" transform="scale(0.015625)"/>
      <path id="DejaVuSans-42f" d="M 581 3500 
L 1153 3500 
L 1153 1856 
L 2775 3500 
L 3481 3500 
L 2144 2147 
L 3316 478 
L 3759 478 
L 3759 -884 
L 3184 -884 
L 3184 0 
L 3009 0 
L 1769 1766 
L 1153 1141 
L 1153 0 
L 581 0 
L 581 3500 
z
" transform="scale(0.015625)"/>
     </defs>
     <use xlink:href="#DejaVuSans-3a6"/>
     <use xlink:href="#DejaVuSans-3cc" transform="translate(68.609375 0)"/>
     <use xlink:href="#DejaVuSans-3cf" transform="translate(133.59375 0)"/>
     <use xlink:href="#DejaVuSans-3d2" transform="translate(197.515625 0)"/>
     <use xlink:href="#DejaVuSans-3e3" transform="translate(258.703125 0)"/>
     <use xlink:href="#DejaVuSans-3d6" transform="translate(318.859375 0)"/>
     <use xlink:href="#DejaVuSans-3" transform="translate(377.109375 0)"/>
     <use xlink:href="#DejaVuSans-3c5" transform="translate(408.890625 0)"/>
     <use xlink:href="#DejaVuSans-3f2" transform="translate(470.5625 0)"/>
     <use xlink:href="#DejaVuSans-3cd" transform="translate(529.75 0)"/>
     <use xlink:href="#DejaVuSans-3cc" transform="translate(594.734375 0)"/>
     <use xlink:href="#DejaVuSans-3db" transform="translate(659.71875 0)"/>
     <use xlink:href="#DejaVuSans-3c4" transform="translate(718.796875 0)"/>
     <use xlink:href="#DejaVuSans-f" transform="translate(780.078125 0)"/>
     <use xlink:href="#DejaVuSans-3" transform="translate(811.859375 0)"/>
     <use xlink:href="#DejaVuSans-15" transform="translate(843.640625 0)"/>
     <use xlink:href="#DejaVuSans-13" transform="translate(907.265625 0)"/>
     <use xlink:href="#DejaVuSans-14" transform="translate(970.890625 0)"/>
     <use xlink:href="#DejaVuSans-17" transform="translate(1034.515625 0)"/>
     <use xlink:href="#DejaVuSans-3" transform="translate(1098.140625 0)"/>
     <use xlink:href="#DejaVuSans-20" transform="translate(1129.921875 0)"/>
     <use xlink:href="#DejaVuSans-3" transform="translate(1213.71875 0)"/>
     <use xlink:href="#DejaVuSans-14" transform="translate(1245.5 0)"/>
     <use xlink:href="#DejaVuSans-13" transform="translate(1309.125 0)"/>
     <use xlink:href="#DejaVuSans-13" transform="translate(1372.75 0)"/>
     <use xlink:href="#DejaVuSans-3" transform="translate(1436.375 0)"/>
     <use xlink:href="#DejaVuSans-79" transform="translate(1468.15625 0)"/>
     <use xlink:href="#DejaVuSans-3" transform="translate(1499.9375 0)"/>
     <use xlink:href="#DejaVuSans-3cc" transform="translate(1531.71875 0)"/>
     <use xlink:href="#DejaVuSans-3d1" transform="translate(1596.703125 0)"/>
     <use xlink:href="#DejaVuSans-3d8" transform="translate(1662.078125 0)"/>
     <use xlink:href="#DejaVuSans-3cf" transform="translate(1747.578125 0)"/>
     <use xlink:href="#DejaVuSans-3e3" transform="translate(1811.5 0)"/>
     <use xlink:href="#DejaVuSans-3da" transform="translate(1871.65625 0)"/>
     <use xlink:href="#DejaVuSans-3cc" transform="translate(1939.71875 0)"/>
     <use xlink:href="#DejaVuSans-3e3" transform="translate(2004.703125 0)"/>
     <use xlink:href="#DejaVuSans-3" transform="translate(2064.859375 0)"/>
     <use xlink:href="#DejaVuSans-3d6" transform="translate(2096.640625 0)"/>
     <use xlink:href="#DejaVuSans-3c4" transform="translate(2154.890625 0)"/>
     <use xlink:href="#DejaVuSans-3de" transform="translate(2216.171875 0)"/>
     <use xlink:href="#DejaVuSans-3d5" transform="translate(2286.828125 0)"/>
     <use xlink:href="#DejaVuSans-3cc" transform="translate(2341.8125 0)"/>
     <use xlink:href="#DejaVuSans-3d4" transform="translate(2406.796875 0)"/>
     <use xlink:href="#DejaVuSans-3cc" transform="translate(2470.28125 0)"/>
     <use xlink:href="#DejaVuSans-3" transform="translate(2535.265625 0)"/>
     <use xlink:href="#DejaVuSans-15" transform="translate(2567.046875 0)"/>
     <use xlink:href="#DejaVuSans-13" transform="translate(2630.671875 0)"/>
     <use xlink:href="#DejaVuSans-14" transform="translate(2694.296875 0)"/>
     <use xlink:href="#DejaVuSans-1b" transform="translate(2757.921875 0)"/>
     <use xlink:href="#DejaVuSans-3" transform="translate(2821.546875 0)"/>
     <use xlink:href="#DejaVuSans-3cd" transform="translate(2853.328125 0)"/>
     <use xlink:href="#DejaVuSans-3cc" transform="translate(2918.3125 0)"/>
     <use xlink:href="#DejaVuSans-3cf" transform="translate(2983.296875 0)"/>
     <use xlink:href="#DejaVuSans-3" transform="translate(3047.21875 0)"/>
     <use xlink:href="#DejaVuSans-3d5" transform="translate(3079 0)"/>
     <use xlink:href="#DejaVuSans-3d2" transform="translate(3133.984375 0)"/>
     <use xlink:href="#DejaVuSans-3cf" transform="translate(3195.171875 0)"/>
     <use xlink:href="#DejaVuSans-3cc" transform="translate(3259.09375 0)"/>
     <use xlink:href="#DejaVuSans-3dc" transform="translate(3324.078125 0)"/>
     <use xlink:href="#DejaVuSans-3d6" transform="translate(3415.578125 0)"/>
     <use xlink:href="#DejaVuSans-3cc" transform="translate(3473.828125 0)"/>
     <use xlink:href="#DejaVuSans-3d4" transform="translate(3538.8125 0)"/>
     <use xlink:href="#DejaVuSans-3d0" transform="translate(3602.296875 0)"/>
     <use xlink:href="#DejaVuSans-3c4" transform="translate(3677.734375 0)"/>
     <use xlink:href="#DejaVuSans-3" transform="translate(3739.015625 0)"/>
     <use xlink:href="#DejaVuSans-3d1" transform="translate(3770.796875 0)"/>
     <use xlink:href="#DejaVuSans-3c4" transform="translate(3836.171875 0)"/>
     <use xlink:href="#DejaVuSans-3d4" transform="translate(3897.453125 0)"/>
     <use xlink:href="#DejaVuSans-3d9" transform="translate(3960.9375 0)"/>
     <use xlink:href="#DejaVuSans-3cc" transform="translate(4020.125 0)"/>
     <use xlink:href="#DejaVuSans-3c7" transform="translate(4085.109375 0)"/>
     <use xlink:href="#DejaVuSans-3c4" transform="translate(4137.65625 0)"/>
     <use xlink:href="#DejaVuSans-3" transform="translate(4198.9375 0)"/>
     <use xlink:href="#DejaVuSans-3ce" transform="translate(4230.71875 0)"/>
     <use xlink:href="#DejaVuSans-3c9" transform="translate(4291.125 0)"/>
     <use xlink:href="#DejaVuSans-3cf" transform="translate(4352.65625 0)"/>
     <use xlink:href="#DejaVuSans-3d6" transform="translate(4416.578125 0)"/>
     <use xlink:href="#DejaVuSans-3cc" transform="translate(4474.828125 0)"/>
     <use xlink:href="#DejaVuSans-3d4" transform="translate(4539.8125 0)"/>
     <use xlink:href="#DejaVuSans-3cc" transform="translate(4603.296875 0)"/>
     <use xlink:href="#DejaVuSans-3c5" transform="translate(4668.28125 0)"/>
     <use xlink:href="#DejaVuSans-3" transform="translate(4729.953125 0)"/>
     <use xlink:href="#DejaVuSans-3db" transform="translate(4761.734375 0)"/>
     <use xlink:href="#DejaVuSans-3cc" transform="translate(4820.8125 0)"/>
     <use xlink:href="#DejaVuSans-42f" transform="translate(4885.796875 0)"/>
     <use xlink:href="#DejaVuSans-3c4" transform="translate(4946.203125 0)"/>
     <use xlink:href="#DejaVuSans-3d4" transform="translate(5007.484375 0)"/>
     <use xlink:href="#DejaVuSans-3cc" transform="translate(5070.96875 0)"/>
     <use xlink:href="#DejaVuSans-3cf" transform="translate(5135.953125 0)"/>
     <use xlink:href="#DejaVuSans-3c7" transform="translate(5199.875 0)"/>
     <use xlink:href="#DejaVuSans-3c4" transform="translate(5252.421875 0)"/>
     <use xlink:href="#DejaVuSans-3d1" transform="translate(5313.703125 0)"/>
    </g>
   </g>
   <g id="text_24">
    <!-- Сув сарфи барқарор, маҳсулот ва сув унумдорлиги ўсмоқда -->
    <g style="fill: #0b0b0b" transform="translate(85.86 17.5025) scale(0.13 -0.13)">
     <defs>
      <path id="DejaVuSans-Bold-3b5" d="M 4288 256 
Q 3956 84 3597 -3 
Q 3238 -91 2847 -91 
Q 1681 -91 1000 561 
Q 319 1213 319 2328 
Q 319 3447 1000 4098 
Q 1681 4750 2847 4750 
Q 3238 4750 3597 4662 
Q 3956 4575 4288 4403 
L 4288 3438 
Q 3953 3666 3628 3772 
Q 3303 3878 2944 3878 
Q 2300 3878 1931 3465 
Q 1563 3053 1563 2328 
Q 1563 1606 1931 1193 
Q 2300 781 2944 781 
Q 3303 781 3628 887 
Q 3953 994 4288 1222 
L 4288 256 
z
" transform="scale(0.015625)"/>
      <path id="DejaVuSans-Bold-3d7" d="M 78 3500 
L 1197 3500 
L 2138 1125 
L 2938 3500 
L 4056 3500 
L 2584 -331 
Q 2363 -916 2067 -1148 
Q 1772 -1381 1288 -1381 
L 641 -1381 
L 641 -647 
L 991 -647 
Q 1275 -647 1404 -556 
Q 1534 -466 1606 -231 
L 1638 -134 
L 78 3500 
z
" transform="scale(0.015625)"/>
      <path id="DejaVuSans-Bold-3c6" d="M 2184 2181 
Q 2378 2181 2478 2261 
Q 2578 2341 2578 2497 
Q 2578 2653 2478 2731 
Q 2378 2809 2184 2809 
L 1656 2809 
L 1656 2181 
L 2184 2181 
z
M 2222 700 
Q 2469 700 2594 798 
Q 2719 897 2719 1094 
Q 2719 1288 2594 1384 
Q 2469 1481 2222 1481 
L 1656 1481 
L 1656 700 
L 2222 700 
z
M 538 3500 
L 2141 3500 
Q 2919 3500 3267 3279 
Q 3616 3059 3616 2575 
Q 3616 2319 3487 2139 
Q 3359 1959 3119 1872 
Q 3428 1788 3598 1561 
Q 3769 1334 3769 1003 
Q 3769 497 3403 248 
Q 3038 0 2294 0 
L 538 0 
L 538 3500 
z
" transform="scale(0.015625)"/>
      <path id="DejaVuSans-Bold-3" transform="scale(0.015625)"/>
      <path id="DejaVuSans-Bold-3d5" d="M 3366 3391 
L 3366 2478 
Q 3138 2634 2908 2709 
Q 2678 2784 2431 2784 
Q 1963 2784 1702 2511 
Q 1441 2238 1441 1747 
Q 1441 1256 1702 982 
Q 1963 709 2431 709 
Q 2694 709 2930 787 
Q 3166 866 3366 1019 
L 3366 103 
Q 3103 6 2833 -42 
Q 2563 -91 2291 -91 
Q 1344 -91 809 395 
Q 275 881 275 1747 
Q 275 2613 809 3098 
Q 1344 3584 2291 3584 
Q 2566 3584 2833 3536 
Q 3100 3488 3366 3391 
z
" transform="scale(0.015625)"/>
      <path id="DejaVuSans-Bold-3c4" d="M 2106 1575 
Q 1756 1575 1579 1456 
Q 1403 1338 1403 1106 
Q 1403 894 1545 773 
Q 1688 653 1941 653 
Q 2256 653 2472 879 
Q 2688 1106 2688 1447 
L 2688 1575 
L 2106 1575 
z
M 3816 1997 
L 3816 0 
L 2688 0 
L 2688 519 
Q 2463 200 2181 54 
Q 1900 -91 1497 -91 
Q 953 -91 614 226 
Q 275 544 275 1050 
Q 275 1666 698 1953 
Q 1122 2241 2028 2241 
L 2688 2241 
L 2688 2328 
Q 2688 2594 2478 2717 
Q 2269 2841 1825 2841 
Q 1466 2841 1156 2769 
Q 847 2697 581 2553 
L 581 3406 
Q 941 3494 1303 3539 
Q 1666 3584 2028 3584 
Q 2975 3584 3395 3211 
Q 3816 2838 3816 1997 
z
" transform="scale(0.015625)"/>
      <path id="DejaVuSans-Bold-3d4" d="M 1656 506 
L 1656 -1331 
L 538 -1331 
L 538 3500 
L 1656 3500 
L 1656 2988 
Q 1888 3294 2169 3439 
Q 2450 3584 2816 3584 
Q 3463 3584 3878 3070 
Q 4294 2556 4294 1747 
Q 4294 938 3878 423 
Q 3463 -91 2816 -91 
Q 2450 -91 2169 54 
Q 1888 200 1656 506 
z
M 2400 2772 
Q 2041 2772 1848 2508 
Q 1656 2244 1656 1747 
Q 1656 1250 1848 986 
Q 2041 722 2400 722 
Q 2759 722 2948 984 
Q 3138 1247 3138 1747 
Q 3138 2247 2948 2509 
Q 2759 2772 2400 2772 
z
" transform="scale(0.015625)"/>
      <path id="DejaVuSans-Bold-3d8" d="M 2091 2772 
Q 1888 2772 1698 2509 
Q 1509 2247 1509 1747 
Q 1509 1247 1698 984 
Q 1888 722 2091 722 
Q 2425 722 2616 953 
L 2616 2541 
Q 2425 2772 2091 2772 
z
M 2616 4863 
L 3734 4863 
L 3734 3356 
Q 4066 3584 4519 3584 
Q 5166 3584 5581 3070 
Q 5997 2556 5997 1747 
Q 5997 938 5581 423 
Q 5166 -91 4519 -91 
Q 4066 -91 3734 138 
L 3734 -1331 
L 2616 -1331 
L 2616 138 
Q 2284 -91 1831 -91 
Q 1184 -91 768 423 
Q 353 938 353 1747 
Q 353 2556 768 3070 
Q 1184 3584 1831 3584 
Q 2284 3584 2616 3356 
L 2616 4863 
z
M 4259 2772 
Q 3925 2772 3734 2541 
L 3734 953 
Q 3925 722 4259 722 
Q 4463 722 4652 984 
Q 4841 1247 4841 1747 
Q 4841 2247 4652 2509 
Q 4463 2772 4259 2772 
z
" transform="scale(0.015625)"/>
      <path id="DejaVuSans-Bold-3cc" d="M 3947 3500 
L 3947 0 
L 2828 0 
L 2828 1863 
L 1700 0 
L 538 0 
L 538 3500 
L 1656 3500 
L 1656 1638 
L 2784 3500 
L 3947 3500 
z
" transform="scale(0.015625)"/>
      <path id="DejaVuSans-Bold-3c5" d="M 344 1941 
L 322 2463 
Q 275 2672 275 2881 
Q 275 3494 456 3894 
Q 791 4631 1238 4781 
Q 1606 4909 3141 5031 
Q 3297 5044 3475 5072 
L 3725 4378 
Q 3488 4316 2269 4209 
Q 1734 4163 1516 4013 
Q 1153 3766 1125 3300 
Q 1584 3584 2275 3584 
Q 3178 3584 3686 3096 
Q 4194 2609 4194 1747 
Q 4194 884 3687 396 
Q 3181 -91 2275 -91 
Q 1369 -91 858 396 
Q 347 884 347 1747 
Q 347 1866 344 1941 
z
M 2272 2784 
Q 1903 2784 1708 2517 
Q 1513 2250 1513 1747 
Q 1513 1244 1708 976 
Q 1903 709 2272 709 
Q 2641 709 2834 976 
Q 3028 1244 3028 1747 
Q 3028 2250 2834 2517 
Q 2641 2784 2272 2784 
z
" transform="scale(0.015625)"/>
      <path id="DejaVuSans-Bold-42f" d="M 538 3500 
L 1656 3500 
L 1656 2316 
L 2903 3500 
L 4128 3500 
L 2634 2078 
L 3713 691 
L 4250 691 
L 4250 0 
L 4250 -884 
L 3131 -884 
L 3131 0 
L 3094 0 
L 1972 1447 
L 1656 1147 
L 1656 0 
L 538 0 
L 538 3500 
z
" transform="scale(0.015625)"/>
      <path id="DejaVuSans-Bold-3d2" d="M 2203 2784 
Q 1831 2784 1636 2517 
Q 1441 2250 1441 1747 
Q 1441 1244 1636 976 
Q 1831 709 2203 709 
Q 2569 709 2762 976 
Q 2956 1244 2956 1747 
Q 2956 2250 2762 2517 
Q 2569 2784 2203 2784 
z
M 2203 3584 
Q 3106 3584 3614 3096 
Q 4122 2609 4122 1747 
Q 4122 884 3614 396 
Q 3106 -91 2203 -91 
Q 1297 -91 786 396 
Q 275 884 275 1747 
Q 275 2609 786 3096 
Q 1297 3584 2203 3584 
z
" transform="scale(0.015625)"/>
      <path id="DejaVuSans-Bold-f" d="M 653 1209 
L 1778 1209 
L 1778 256 
L 1006 -909 
L 341 -909 
L 653 256 
L 653 1209 
z
" transform="scale(0.015625)"/>
      <path id="DejaVuSans-Bold-3d0" d="M 538 3500 
L 1825 3500 
L 2613 1750 
L 3400 3500 
L 4691 3500 
L 4691 0 
L 3575 0 
L 3575 1984 
L 2984 672 
L 2250 672 
L 1656 1984 
L 1656 0 
L 538 0 
L 538 3500 
z
" transform="scale(0.015625)"/>
      <path id="DejaVuSans-Bold-447" d="M 3522 691 
L 4031 691 
L 4031 -884 
L 2913 -884 
L 2913 0 
L 2847 0 
L 2059 1106 
L 1281 0 
L 97 0 
L 1422 1791 
L 159 3500 
L 1344 3500 
L 2059 2463 
L 2784 3500 
L 3969 3500 
L 2706 1797 
L 3522 691 
z
" transform="scale(0.015625)"/>
      <path id="DejaVuSans-Bold-3cf" d="M 353 0 
L 353 800 
Q 906 913 1031 1278 
Q 1125 1556 1125 2928 
L 1125 3500 
L 4150 3500 
L 4150 0 
L 3031 0 
L 3031 2700 
L 2244 2700 
L 2244 2584 
Q 2244 1213 2028 813 
Q 1591 0 353 0 
z
" transform="scale(0.015625)"/>
      <path id="DejaVuSans-Bold-3d6" d="M 25 3500 
L 3681 3500 
L 3681 2809 
L 2413 2809 
L 2413 0 
L 1297 0 
L 1297 2809 
L 25 2809 
L 25 3500 
z
" transform="scale(0.015625)"/>
      <path id="DejaVuSans-Bold-3d1" d="M 538 3500 
L 1656 3500 
L 1656 2169 
L 2766 2169 
L 2766 3500 
L 3884 3500 
L 3884 0 
L 2766 0 
L 2766 1478 
L 1656 1478 
L 1656 0 
L 538 0 
L 538 3500 
z
" transform="scale(0.015625)"/>
      <path id="DejaVuSans-Bold-3c8" d="M 547 800 
Q 903 919 1053 1314 
Q 1203 1709 1203 2838 
L 1203 3500 
L 4228 3500 
L 4228 800 
L 4809 800 
L 4809 -884 
L 4009 -884 
L 4009 0 
L 1159 0 
L 1159 -884 
L 359 -884 
L 359 800 
L 547 800 
z
M 3109 2700 
L 2322 2700 
L 2322 2603 
Q 2322 1456 2063 800 
L 3109 800 
L 3109 2700 
z
" transform="scale(0.015625)"/>
      <path id="DejaVuSans-Bold-3c7" d="M 538 0 
L 538 3500 
L 3191 3500 
L 3191 2809 
L 1656 2809 
L 1656 0 
L 538 0 
z
" transform="scale(0.015625)"/>
      <path id="DejaVuSans-Bold-3f2" d="M 78 3500 
L 1197 3500 
L 2138 1125 
L 2938 3500 
L 4056 3500 
L 2584 -331 
Q 2363 -916 2067 -1148 
Q 1772 -1381 1288 -1381 
L 641 -1381 
L 641 -647 
L 991 -647 
Q 1275 -647 1404 -556 
Q 1534 -466 1606 -231 
L 1638 -134 
L 78 3500 
z
M 1019 4894 
L 1466 4894 
Q 1500 4675 1655 4559 
Q 1810 4444 2069 4444 
Q 2328 4444 2483 4559 
Q 2638 4675 2672 4894 
L 3119 4894 
Q 3100 4444 2828 4205 
Q 2557 3966 2069 3966 
Q 1582 3966 1310 4205 
Q 1038 4444 1019 4894 
z
" transform="scale(0.015625)"/>
     </defs>
     <use xlink:href="#DejaVuSans-Bold-3b5"/>
     <use xlink:href="#DejaVuSans-Bold-3d7" transform="translate(73.390625 0)"/>
     <use xlink:href="#DejaVuSans-Bold-3c6" transform="translate(138.578125 0)"/>
     <use xlink:href="#DejaVuSans-Bold-3" transform="translate(201.859375 0)"/>
     <use xlink:href="#DejaVuSans-Bold-3d5" transform="translate(236.671875 0)"/>
     <use xlink:href="#DejaVuSans-Bold-3c4" transform="translate(295.953125 0)"/>
     <use xlink:href="#DejaVuSans-Bold-3d4" transform="translate(363.4375 0)"/>
     <use xlink:href="#DejaVuSans-Bold-3d8" transform="translate(435.015625 0)"/>
     <use xlink:href="#DejaVuSans-Bold-3cc" transform="translate(534.234375 0)"/>
     <use xlink:href="#DejaVuSans-Bold-3" transform="translate(604.296875 0)"/>
     <use xlink:href="#DejaVuSans-Bold-3c5" transform="translate(639.109375 0)"/>
     <use xlink:href="#DejaVuSans-Bold-3c4" transform="translate(708.9375 0)"/>
     <use xlink:href="#DejaVuSans-Bold-3d4" transform="translate(776.421875 0)"/>
     <use xlink:href="#DejaVuSans-Bold-42f" transform="translate(848 0)"/>
     <use xlink:href="#DejaVuSans-Bold-3c4" transform="translate(915.875 0)"/>
     <use xlink:href="#DejaVuSans-Bold-3d4" transform="translate(983.359375 0)"/>
     <use xlink:href="#DejaVuSans-Bold-3d2" transform="translate(1054.9375 0)"/>
     <use xlink:href="#DejaVuSans-Bold-3d4" transform="translate(1123.640625 0)"/>
     <use xlink:href="#DejaVuSans-Bold-f" transform="translate(1195.21875 0)"/>
     <use xlink:href="#DejaVuSans-Bold-3" transform="translate(1233.203125 0)"/>
     <use xlink:href="#DejaVuSans-Bold-3d0" transform="translate(1268.015625 0)"/>
     <use xlink:href="#DejaVuSans-Bold-3c4" transform="translate(1349.75 0)"/>
     <use xlink:href="#DejaVuSans-Bold-447" transform="translate(1417.234375 0)"/>
     <use xlink:href="#DejaVuSans-Bold-3d5" transform="translate(1481.734375 0)"/>
     <use xlink:href="#DejaVuSans-Bold-3d7" transform="translate(1541.015625 0)"/>
     <use xlink:href="#DejaVuSans-Bold-3cf" transform="translate(1606.203125 0)"/>
     <use xlink:href="#DejaVuSans-Bold-3d2" transform="translate(1679.453125 0)"/>
     <use xlink:href="#DejaVuSans-Bold-3d6" transform="translate(1748.15625 0)"/>
     <use xlink:href="#DejaVuSans-Bold-3" transform="translate(1806.109375 0)"/>
     <use xlink:href="#DejaVuSans-Bold-3c6" transform="translate(1840.921875 0)"/>
     <use xlink:href="#DejaVuSans-Bold-3c4" transform="translate(1904.203125 0)"/>
     <use xlink:href="#DejaVuSans-Bold-3" transform="translate(1971.6875 0)"/>
     <use xlink:href="#DejaVuSans-Bold-3d5" transform="translate(2006.5 0)"/>
     <use xlink:href="#DejaVuSans-Bold-3d7" transform="translate(2065.78125 0)"/>
     <use xlink:href="#DejaVuSans-Bold-3c6" transform="translate(2130.96875 0)"/>
     <use xlink:href="#DejaVuSans-Bold-3" transform="translate(2194.25 0)"/>
     <use xlink:href="#DejaVuSans-Bold-3d7" transform="translate(2229.0625 0)"/>
     <use xlink:href="#DejaVuSans-Bold-3d1" transform="translate(2294.25 0)"/>
     <use xlink:href="#DejaVuSans-Bold-3d7" transform="translate(2363.34375 0)"/>
     <use xlink:href="#DejaVuSans-Bold-3d0" transform="translate(2428.53125 0)"/>
     <use xlink:href="#DejaVuSans-Bold-3c8" transform="translate(2510.265625 0)"/>
     <use xlink:href="#DejaVuSans-Bold-3d2" transform="translate(2591.03125 0)"/>
     <use xlink:href="#DejaVuSans-Bold-3d4" transform="translate(2659.734375 0)"/>
     <use xlink:href="#DejaVuSans-Bold-3cf" transform="translate(2731.3125 0)"/>
     <use xlink:href="#DejaVuSans-Bold-3cc" transform="translate(2804.5625 0)"/>
     <use xlink:href="#DejaVuSans-Bold-3c7" transform="translate(2874.625 0)"/>
     <use xlink:href="#DejaVuSans-Bold-3cc" transform="translate(2926.875 0)"/>
     <use xlink:href="#DejaVuSans-Bold-3" transform="translate(2996.9375 0)"/>
     <use xlink:href="#DejaVuSans-Bold-3f2" transform="translate(3031.75 0)"/>
     <use xlink:href="#DejaVuSans-Bold-3d5" transform="translate(3096.9375 0)"/>
     <use xlink:href="#DejaVuSans-Bold-3d0" transform="translate(3156.21875 0)"/>
     <use xlink:href="#DejaVuSans-Bold-3d2" transform="translate(3237.953125 0)"/>
     <use xlink:href="#DejaVuSans-Bold-42f" transform="translate(3306.65625 0)"/>
     <use xlink:href="#DejaVuSans-Bold-3c8" transform="translate(3374.53125 0)"/>
     <use xlink:href="#DejaVuSans-Bold-3c4" transform="translate(3455.296875 0)"/>
    </g>
   </g>
   <g id="legend_1">
    <g id="line2d_28">
     <path d="M 94.41 45.946016 
L 103.91 45.946016 
L 113.41 45.946016 
" style="fill: none; stroke: #2a78d6; stroke-width: 2; stroke-linecap: square"/>
     <g>
      <use xlink:href="#me0069d8f68" x="103.91" y="45.946016" style="fill: #2a78d6; stroke: #fcfcfb; stroke-width: 1.6"/>
     </g>
    </g>
    <g id="text_25">
     <!-- Амударёдан олинган сув -->
     <g style="fill: #52514e" transform="translate(121.01 49.271016) scale(0.095 -0.095)">
      <defs>
       <path id="DejaVuSans-3a4" d="M 2188 4044 
L 1331 1722 
L 3047 1722 
L 2188 4044 
z
M 1831 4666 
L 2547 4666 
L 4325 0 
L 3669 0 
L 3244 1197 
L 1141 1197 
L 716 0 
L 50 0 
L 1831 4666 
z
" transform="scale(0.015625)"/>
       <path id="DejaVuSans-3e5" d="M 3597 1894 
L 3597 1613 
L 953 1613 
Q 991 1019 1311 708 
Q 1631 397 2203 397 
Q 2534 397 2845 478 
Q 3156 559 3463 722 
L 3463 178 
Q 3153 47 2828 -22 
Q 2503 -91 2169 -91 
Q 1331 -91 842 396 
Q 353 884 353 1716 
Q 353 2575 817 3079 
Q 1281 3584 2069 3584 
Q 2775 3584 3186 3129 
Q 3597 2675 3597 1894 
z
M 3022 2063 
Q 3016 2534 2758 2815 
Q 2500 3097 2075 3097 
Q 1594 3097 1305 2825 
Q 1016 2553 972 2059 
L 3022 2063 
z
M 2363 4850 
L 2997 4850 
L 2997 4219 
L 2363 4219 
L 2363 4850 
z
M 1141 4850 
L 1775 4850 
L 1775 4219 
L 1141 4219 
L 1141 4850 
z
" transform="scale(0.015625)"/>
      </defs>
      <use xlink:href="#DejaVuSans-3a4"/>
      <use xlink:href="#DejaVuSans-3d0" transform="translate(68.40625 0)"/>
      <use xlink:href="#DejaVuSans-3d7" transform="translate(143.84375 0)"/>
      <use xlink:href="#DejaVuSans-3c8" transform="translate(203.03125 0)"/>
      <use xlink:href="#DejaVuSans-3c4" transform="translate(272.171875 0)"/>
      <use xlink:href="#DejaVuSans-3d4" transform="translate(333.453125 0)"/>
      <use xlink:href="#DejaVuSans-3e5" transform="translate(396.9375 0)"/>
      <use xlink:href="#DejaVuSans-3c8" transform="translate(458.46875 0)"/>
      <use xlink:href="#DejaVuSans-3c4" transform="translate(527.609375 0)"/>
      <use xlink:href="#DejaVuSans-3d1" transform="translate(588.890625 0)"/>
      <use xlink:href="#DejaVuSans-3" transform="translate(654.265625 0)"/>
      <use xlink:href="#DejaVuSans-3d2" transform="translate(686.046875 0)"/>
      <use xlink:href="#DejaVuSans-3cf" transform="translate(747.234375 0)"/>
      <use xlink:href="#DejaVuSans-3cc" transform="translate(811.15625 0)"/>
      <use xlink:href="#DejaVuSans-3d1" transform="translate(876.140625 0)"/>
      <use xlink:href="#DejaVuSans-3c7" transform="translate(941.515625 0)"/>
      <use xlink:href="#DejaVuSans-3c4" transform="translate(994.0625 0)"/>
      <use xlink:href="#DejaVuSans-3d1" transform="translate(1055.34375 0)"/>
      <use xlink:href="#DejaVuSans-3" transform="translate(1120.71875 0)"/>
      <use xlink:href="#DejaVuSans-3d5" transform="translate(1152.5 0)"/>
      <use xlink:href="#DejaVuSans-3d7" transform="translate(1207.484375 0)"/>
      <use xlink:href="#DejaVuSans-3c6" transform="translate(1266.671875 0)"/>
     </g>
    </g>
    <g id="line2d_29">
     <path d="M 94.41 60.196758 
L 103.91 60.196758 
L 113.41 60.196758 
" style="fill: none; stroke: #eb6834; stroke-width: 2; stroke-linecap: square"/>
     <g>
      <use xlink:href="#m7c193b17e5" x="103.91" y="60.196758" style="fill: #eb6834; stroke: #fcfcfb; stroke-width: 1.6"/>
     </g>
    </g>
    <g id="text_26">
     <!-- Ялпи маҳсулот (2018 нархида) -->
     <g style="fill: #52514e" transform="translate(121.01 63.521758) scale(0.095 -0.095)">
      <defs>
       <path id="DejaVuSans-3c3" d="M 1284 3322 
Q 1284 2913 1517 2702 
Q 1750 2491 2206 2491 
L 3188 2491 
L 3188 4147 
L 2206 4147 
Q 1750 4147 1517 3939 
Q 1284 3731 1284 3322 
z
M 425 0 
L 1700 2041 
Q 1388 2122 988 2386 
Q 588 2650 588 3322 
Q 588 3966 994 4316 
Q 1400 4666 2206 4666 
L 3819 4666 
L 3819 0 
L 3188 0 
L 3188 1972 
L 2344 1972 
L 1113 0 
L 425 0 
z
" transform="scale(0.015625)"/>
       <path id="DejaVuSans-3d3" d="M 3603 3500 
L 3603 0 
L 3025 0 
L 3025 3041 
L 1159 3041 
L 1159 0 
L 581 0 
L 581 3500 
L 3603 3500 
z
" transform="scale(0.015625)"/>
       <path id="DejaVuSans-447" d="M 3225 478 
L 3578 478 
L 3578 -884 
L 3003 -884 
L 3003 0 
L 2900 0 
L 1881 1375 
L 863 0 
L 184 0 
L 1544 1831 
L 300 3500 
L 978 3500 
L 1906 2253 
L 2834 3500 
L 3513 3500 
L 2247 1797 
L 3225 478 
z
" transform="scale(0.015625)"/>
       <path id="DejaVuSans-b" d="M 1984 4856 
Q 1566 4138 1362 3434 
Q 1159 2731 1159 2009 
Q 1159 1288 1364 580 
Q 1569 -128 1984 -844 
L 1484 -844 
Q 1016 -109 783 600 
Q 550 1309 550 2009 
Q 550 2706 781 3412 
Q 1013 4119 1484 4856 
L 1984 4856 
z
" transform="scale(0.015625)"/>
       <path id="DejaVuSans-c" d="M 513 4856 
L 1013 4856 
Q 1481 4119 1714 3412 
Q 1947 2706 1947 2009 
Q 1947 1309 1714 600 
Q 1481 -109 1013 -844 
L 513 -844 
Q 928 -128 1133 580 
Q 1338 1288 1338 2009 
Q 1338 2731 1133 3434 
Q 928 4138 513 4856 
z
" transform="scale(0.015625)"/>
      </defs>
      <use xlink:href="#DejaVuSans-3c3"/>
      <use xlink:href="#DejaVuSans-3cf" transform="translate(69.484375 0)"/>
      <use xlink:href="#DejaVuSans-3d3" transform="translate(133.40625 0)"/>
      <use xlink:href="#DejaVuSans-3cc" transform="translate(198.78125 0)"/>
      <use xlink:href="#DejaVuSans-3" transform="translate(263.765625 0)"/>
      <use xlink:href="#DejaVuSans-3d0" transform="translate(295.546875 0)"/>
      <use xlink:href="#DejaVuSans-3c4" transform="translate(370.984375 0)"/>
      <use xlink:href="#DejaVuSans-447" transform="translate(432.265625 0)"/>
      <use xlink:href="#DejaVuSans-3d5" transform="translate(491.453125 0)"/>
      <use xlink:href="#DejaVuSans-3d7" transform="translate(546.4375 0)"/>
      <use xlink:href="#DejaVuSans-3cf" transform="translate(605.625 0)"/>
      <use xlink:href="#DejaVuSans-3d2" transform="translate(669.546875 0)"/>
      <use xlink:href="#DejaVuSans-3d6" transform="translate(730.734375 0)"/>
      <use xlink:href="#DejaVuSans-3" transform="translate(788.984375 0)"/>
      <use xlink:href="#DejaVuSans-b" transform="translate(820.765625 0)"/>
      <use xlink:href="#DejaVuSans-15" transform="translate(859.78125 0)"/>
      <use xlink:href="#DejaVuSans-13" transform="translate(923.40625 0)"/>
      <use xlink:href="#DejaVuSans-14" transform="translate(987.03125 0)"/>
      <use xlink:href="#DejaVuSans-1b" transform="translate(1050.65625 0)"/>
      <use xlink:href="#DejaVuSans-3" transform="translate(1114.28125 0)"/>
      <use xlink:href="#DejaVuSans-3d1" transform="translate(1146.0625 0)"/>
      <use xlink:href="#DejaVuSans-3c4" transform="translate(1211.4375 0)"/>
      <use xlink:href="#DejaVuSans-3d4" transform="translate(1272.71875 0)"/>
      <use xlink:href="#DejaVuSans-3d9" transform="translate(1336.203125 0)"/>
      <use xlink:href="#DejaVuSans-3cc" transform="translate(1395.390625 0)"/>
      <use xlink:href="#DejaVuSans-3c8" transform="translate(1460.375 0)"/>
      <use xlink:href="#DejaVuSans-3c4" transform="translate(1529.515625 0)"/>
      <use xlink:href="#DejaVuSans-c" transform="translate(1590.796875 0)"/>
     </g>
    </g>
    <g id="line2d_30">
     <path d="M 94.41 74.4475 
L 103.91 74.4475 
L 113.41 74.4475 
" style="fill: none; stroke: #1baf7a; stroke-width: 2; stroke-linecap: square"/>
     <g>
      <use xlink:href="#m78e94a38a1" x="103.91" y="74.4475" style="fill: #1baf7a; stroke: #fcfcfb; stroke-width: 1.6"/>
     </g>
    </g>
    <g id="text_27">
     <!-- Сув унумдорлиги (сўм/м³, реал) -->
     <g style="fill: #52514e" transform="translate(121.01 77.7725) scale(0.095 -0.095)">
      <defs>
       <path id="DejaVuSans-3b5" d="M 4122 4306 
L 4122 3641 
Q 3803 3938 3442 4084 
Q 3081 4231 2675 4231 
Q 1875 4231 1450 3742 
Q 1025 3253 1025 2328 
Q 1025 1406 1450 917 
Q 1875 428 2675 428 
Q 3081 428 3442 575 
Q 3803 722 4122 1019 
L 4122 359 
Q 3791 134 3420 21 
Q 3050 -91 2638 -91 
Q 1578 -91 968 557 
Q 359 1206 359 2328 
Q 359 3453 968 4101 
Q 1578 4750 2638 4750 
Q 3056 4750 3426 4639 
Q 3797 4528 4122 4306 
z
" transform="scale(0.015625)"/>
       <path id="DejaVuSans-12" d="M 1625 4666 
L 2156 4666 
L 531 -594 
L 0 -594 
L 1625 4666 
z
" transform="scale(0.015625)"/>
       <path id="DejaVuSans-75" d="M 1638 3500 
Q 1925 3444 2083 3273 
Q 2241 3103 2241 2847 
Q 2241 2459 1944 2250 
Q 1647 2041 1094 2041 
Q 916 2041 720 2073 
Q 525 2106 306 2169 
L 306 2547 
Q 469 2463 655 2422 
Q 841 2381 1050 2381 
Q 1391 2381 1578 2504 
Q 1766 2628 1766 2847 
Q 1766 3078 1592 3197 
Q 1419 3316 1081 3316 
L 813 3316 
L 813 3653 
L 1106 3653 
Q 1400 3653 1551 3751 
Q 1703 3850 1703 4038 
Q 1703 4219 1547 4314 
Q 1391 4409 1094 4409 
Q 969 4409 809 4381 
Q 650 4353 397 4281 
L 397 4641 
Q 625 4694 825 4722 
Q 1025 4750 1197 4750 
Q 1647 4750 1911 4565 
Q 2175 4381 2175 4072 
Q 2175 3856 2034 3706 
Q 1894 3556 1638 3500 
z
" transform="scale(0.015625)"/>
      </defs>
      <use xlink:href="#DejaVuSans-3b5"/>
      <use xlink:href="#DejaVuSans-3d7" transform="translate(69.828125 0)"/>
      <use xlink:href="#DejaVuSans-3c6" transform="translate(129.015625 0)"/>
      <use xlink:href="#DejaVuSans-3" transform="translate(187.953125 0)"/>
      <use xlink:href="#DejaVuSans-3d7" transform="translate(219.734375 0)"/>
      <use xlink:href="#DejaVuSans-3d1" transform="translate(278.921875 0)"/>
      <use xlink:href="#DejaVuSans-3d7" transform="translate(344.296875 0)"/>
      <use xlink:href="#DejaVuSans-3d0" transform="translate(403.484375 0)"/>
      <use xlink:href="#DejaVuSans-3c8" transform="translate(478.921875 0)"/>
      <use xlink:href="#DejaVuSans-3d2" transform="translate(548.0625 0)"/>
      <use xlink:href="#DejaVuSans-3d4" transform="translate(609.25 0)"/>
      <use xlink:href="#DejaVuSans-3cf" transform="translate(672.734375 0)"/>
      <use xlink:href="#DejaVuSans-3cc" transform="translate(736.65625 0)"/>
      <use xlink:href="#DejaVuSans-3c7" transform="translate(801.640625 0)"/>
      <use xlink:href="#DejaVuSans-3cc" transform="translate(854.1875 0)"/>
      <use xlink:href="#DejaVuSans-3" transform="translate(919.171875 0)"/>
      <use xlink:href="#DejaVuSans-b" transform="translate(950.953125 0)"/>
      <use xlink:href="#DejaVuSans-3d5" transform="translate(989.96875 0)"/>
      <use xlink:href="#DejaVuSans-3f2" transform="translate(1044.953125 0)"/>
      <use xlink:href="#DejaVuSans-3d0" transform="translate(1104.140625 0)"/>
      <use xlink:href="#DejaVuSans-12" transform="translate(1179.578125 0)"/>
      <use xlink:href="#DejaVuSans-3d0" transform="translate(1213.265625 0)"/>
      <use xlink:href="#DejaVuSans-75" transform="translate(1288.703125 0)"/>
      <use xlink:href="#DejaVuSans-f" transform="translate(1328.796875 0)"/>
      <use xlink:href="#DejaVuSans-3" transform="translate(1360.578125 0)"/>
      <use xlink:href="#DejaVuSans-3d4" transform="translate(1392.359375 0)"/>
      <use xlink:href="#DejaVuSans-3c9" transform="translate(1455.84375 0)"/>
      <use xlink:href="#DejaVuSans-3c4" transform="translate(1517.375 0)"/>
      <use xlink:href="#DejaVuSans-3cf" transform="translate(1578.65625 0)"/>
      <use xlink:href="#DejaVuSans-c" transform="translate(1642.578125 0)"/>
     </g>
    </g>
   </g>
  </g>
  <g id="text_28">
   <!-- Манба: муаллиф ҳисоб-китоблари. Маълумотлар АБМК тизими ва вилоят статистикасининг эълон қилинган йиғма кўрсаткичларига лангарланган. -->
   <g style="fill: #898781" transform="translate(7.2 400.4145) scale(0.08 -0.08)">
    <defs>
     <path id="DejaVuSans-3b0" d="M 628 4666 
L 1569 4666 
L 2759 1491 
L 3956 4666 
L 4897 4666 
L 4897 0 
L 4281 0 
L 4281 4097 
L 3078 897 
L 2444 897 
L 1241 4097 
L 1241 0 
L 628 0 
L 628 4666 
z
" transform="scale(0.015625)"/>
     <path id="DejaVuSans-1d" d="M 750 794 
L 1409 794 
L 1409 0 
L 750 0 
L 750 794 
z
M 750 3309 
L 1409 3309 
L 1409 2516 
L 750 2516 
L 750 3309 
z
" transform="scale(0.015625)"/>
     <path id="DejaVuSans-10" d="M 313 2009 
L 1997 2009 
L 1997 1497 
L 313 1497 
L 313 2009 
z
" transform="scale(0.015625)"/>
     <path id="DejaVuSans-11" d="M 684 794 
L 1344 794 
L 1344 0 
L 684 0 
L 684 794 
z
" transform="scale(0.015625)"/>
     <path id="DejaVuSans-3a5" d="M 3272 1372 
Q 3272 1806 3026 2017 
Q 2781 2228 2272 2228 
L 1259 2228 
L 1259 519 
L 2272 519 
Q 2781 519 3026 730 
Q 3272 941 3272 1372 
z
M 3609 4666 
L 3609 4147 
L 1259 4147 
L 1259 2747 
L 2303 2747 
Q 3088 2747 3513 2406 
Q 3938 2066 3938 1372 
Q 3938 681 3527 340 
Q 3116 0 2303 0 
L 628 0 
L 628 4666 
L 3609 4666 
z
" transform="scale(0.015625)"/>
     <path id="DejaVuSans-3ae" d="M 628 4666 
L 1259 4666 
L 1259 2359 
L 3516 4666 
L 4325 4666 
L 2522 2822 
L 4419 0 
L 3731 0 
L 2113 2403 
L 1259 1531 
L 1259 0 
L 628 0 
L 628 4666 
z
" transform="scale(0.015625)"/>
     <path id="DejaVuSans-3cb" d="M 2206 1888 
Q 2594 1813 2809 1584 
Q 3025 1356 3025 1019 
Q 3025 478 2622 193 
Q 2219 -91 1475 -91 
Q 1225 -91 961 -47 
Q 697 -3 416 84 
L 416 619 
Q 638 503 903 445 
Q 1169 388 1459 388 
Q 1931 388 2195 563 
Q 2459 738 2459 1019 
Q 2459 1294 2225 1461 
Q 1991 1628 1563 1628 
L 1100 1628 
L 1100 2103 
L 1584 2103 
Q 1947 2103 2158 2242 
Q 2369 2381 2369 2600 
Q 2369 2800 2151 2944 
Q 1934 3088 1563 3088 
Q 1341 3088 1089 3047 
Q 838 3006 534 2916 
L 534 3438 
Q 841 3513 1106 3550 
Q 1372 3588 1609 3588 
Q 2222 3588 2576 3342 
Q 2931 3097 2931 2656 
Q 2931 2366 2743 2164 
Q 2556 1963 2206 1888 
z
" transform="scale(0.015625)"/>
     <path id="DejaVuSans-3e1" d="M 353 666 
Q 847 397 1338 397 
Q 1797 397 2125 664 
Q 2453 931 2513 1613 
L 738 1613 
L 738 2072 
L 2494 2072 
Q 2456 2400 2207 2748 
Q 1959 3097 1338 3097 
Q 856 3097 353 2828 
L 353 3366 
Q 844 3584 1363 3584 
Q 2181 3584 2651 3089 
Q 3122 2594 3122 1747 
Q 3122 903 2664 406 
Q 2206 -91 1403 -91 
Q 813 -91 353 134 
L 353 666 
z
" transform="scale(0.015625)"/>
     <path id="DejaVuSans-427" d="M 997 0 
L 997 1563 
L 175 1563 
L 175 2094 
L 997 2094 
L 997 3500 
L 3466 3500 
L 3466 3009 
L 1572 3009 
L 1572 2094 
L 2872 2094 
L 2872 1563 
L 1572 1563 
L 1572 0 
L 997 0 
z
" transform="scale(0.015625)"/>
    </defs>
    <use xlink:href="#DejaVuSans-3b0"/>
    <use xlink:href="#DejaVuSans-3c4" transform="translate(86.28125 0)"/>
    <use xlink:href="#DejaVuSans-3d1" transform="translate(147.5625 0)"/>
    <use xlink:href="#DejaVuSans-3c5" transform="translate(212.9375 0)"/>
    <use xlink:href="#DejaVuSans-3c4" transform="translate(274.609375 0)"/>
    <use xlink:href="#DejaVuSans-1d" transform="translate(335.890625 0)"/>
    <use xlink:href="#DejaVuSans-3" transform="translate(369.578125 0)"/>
    <use xlink:href="#DejaVuSans-3d0" transform="translate(401.359375 0)"/>
    <use xlink:href="#DejaVuSans-3d7" transform="translate(476.796875 0)"/>
    <use xlink:href="#DejaVuSans-3c4" transform="translate(535.984375 0)"/>
    <use xlink:href="#DejaVuSans-3cf" transform="translate(597.265625 0)"/>
    <use xlink:href="#DejaVuSans-3cf" transform="translate(661.1875 0)"/>
    <use xlink:href="#DejaVuSans-3cc" transform="translate(725.109375 0)"/>
    <use xlink:href="#DejaVuSans-3d8" transform="translate(790.09375 0)"/>
    <use xlink:href="#DejaVuSans-3" transform="translate(875.59375 0)"/>
    <use xlink:href="#DejaVuSans-447" transform="translate(907.375 0)"/>
    <use xlink:href="#DejaVuSans-3cc" transform="translate(966.5625 0)"/>
    <use xlink:href="#DejaVuSans-3d5" transform="translate(1031.546875 0)"/>
    <use xlink:href="#DejaVuSans-3d2" transform="translate(1086.53125 0)"/>
    <use xlink:href="#DejaVuSans-3c5" transform="translate(1147.71875 0)"/>
    <use xlink:href="#DejaVuSans-10" transform="translate(1209.390625 0)"/>
    <use xlink:href="#DejaVuSans-3ce" transform="translate(1245.46875 0)"/>
    <use xlink:href="#DejaVuSans-3cc" transform="translate(1305.875 0)"/>
    <use xlink:href="#DejaVuSans-3d6" transform="translate(1370.859375 0)"/>
    <use xlink:href="#DejaVuSans-3d2" transform="translate(1429.109375 0)"/>
    <use xlink:href="#DejaVuSans-3c5" transform="translate(1490.296875 0)"/>
    <use xlink:href="#DejaVuSans-3cf" transform="translate(1551.96875 0)"/>
    <use xlink:href="#DejaVuSans-3c4" transform="translate(1615.890625 0)"/>
    <use xlink:href="#DejaVuSans-3d4" transform="translate(1677.171875 0)"/>
    <use xlink:href="#DejaVuSans-3cc" transform="translate(1740.65625 0)"/>
    <use xlink:href="#DejaVuSans-11" transform="translate(1805.640625 0)"/>
    <use xlink:href="#DejaVuSans-3" transform="translate(1837.421875 0)"/>
    <use xlink:href="#DejaVuSans-3b0" transform="translate(1869.203125 0)"/>
    <use xlink:href="#DejaVuSans-3c4" transform="translate(1955.484375 0)"/>
    <use xlink:href="#DejaVuSans-3de" transform="translate(2016.765625 0)"/>
    <use xlink:href="#DejaVuSans-3cf" transform="translate(2087.421875 0)"/>
    <use xlink:href="#DejaVuSans-3d7" transform="translate(2151.34375 0)"/>
    <use xlink:href="#DejaVuSans-3d0" transform="translate(2210.53125 0)"/>
    <use xlink:href="#DejaVuSans-3d2" transform="translate(2285.96875 0)"/>
    <use xlink:href="#DejaVuSans-3d6" transform="translate(2347.15625 0)"/>
    <use xlink:href="#DejaVuSans-3cf" transform="translate(2405.40625 0)"/>
    <use xlink:href="#DejaVuSans-3c4" transform="translate(2469.328125 0)"/>
    <use xlink:href="#DejaVuSans-3d4" transform="translate(2530.609375 0)"/>
    <use xlink:href="#DejaVuSans-3" transform="translate(2594.09375 0)"/>
    <use xlink:href="#DejaVuSans-3a4" transform="translate(2625.875 0)"/>
    <use xlink:href="#DejaVuSans-3a5" transform="translate(2694.28125 0)"/>
    <use xlink:href="#DejaVuSans-3b0" transform="translate(2762.890625 0)"/>
    <use xlink:href="#DejaVuSans-3ae" transform="translate(2849.171875 0)"/>
    <use xlink:href="#DejaVuSans-3" transform="translate(2920.171875 0)"/>
    <use xlink:href="#DejaVuSans-3d6" transform="translate(2951.953125 0)"/>
    <use xlink:href="#DejaVuSans-3cc" transform="translate(3010.203125 0)"/>
    <use xlink:href="#DejaVuSans-3cb" transform="translate(3075.1875 0)"/>
    <use xlink:href="#DejaVuSans-3cc" transform="translate(3128.359375 0)"/>
    <use xlink:href="#DejaVuSans-3d0" transform="translate(3193.34375 0)"/>
    <use xlink:href="#DejaVuSans-3cc" transform="translate(3268.78125 0)"/>
    <use xlink:href="#DejaVuSans-3" transform="translate(3333.765625 0)"/>
    <use xlink:href="#DejaVuSans-3c6" transform="translate(3365.546875 0)"/>
    <use xlink:href="#DejaVuSans-3c4" transform="translate(3424.484375 0)"/>
    <use xlink:href="#DejaVuSans-3" transform="translate(3485.765625 0)"/>
    <use xlink:href="#DejaVuSans-3c6" transform="translate(3517.546875 0)"/>
    <use xlink:href="#DejaVuSans-3cc" transform="translate(3576.484375 0)"/>
    <use xlink:href="#DejaVuSans-3cf" transform="translate(3641.46875 0)"/>
    <use xlink:href="#DejaVuSans-3d2" transform="translate(3705.390625 0)"/>
    <use xlink:href="#DejaVuSans-3e3" transform="translate(3766.578125 0)"/>
    <use xlink:href="#DejaVuSans-3d6" transform="translate(3826.734375 0)"/>
    <use xlink:href="#DejaVuSans-3" transform="translate(3884.984375 0)"/>
    <use xlink:href="#DejaVuSans-3d5" transform="translate(3916.765625 0)"/>
    <use xlink:href="#DejaVuSans-3d6" transform="translate(3971.75 0)"/>
    <use xlink:href="#DejaVuSans-3c4" transform="translate(4030 0)"/>
    <use xlink:href="#DejaVuSans-3d6" transform="translate(4091.28125 0)"/>
    <use xlink:href="#DejaVuSans-3cc" transform="translate(4149.53125 0)"/>
    <use xlink:href="#DejaVuSans-3d5" transform="translate(4214.515625 0)"/>
    <use xlink:href="#DejaVuSans-3d6" transform="translate(4269.5 0)"/>
    <use xlink:href="#DejaVuSans-3cc" transform="translate(4327.75 0)"/>
    <use xlink:href="#DejaVuSans-3ce" transform="translate(4392.734375 0)"/>
    <use xlink:href="#DejaVuSans-3c4" transform="translate(4453.140625 0)"/>
    <use xlink:href="#DejaVuSans-3d5" transform="translate(4514.421875 0)"/>
    <use xlink:href="#DejaVuSans-3cc" transform="translate(4569.40625 0)"/>
    <use xlink:href="#DejaVuSans-3d1" transform="translate(4634.390625 0)"/>
    <use xlink:href="#DejaVuSans-3cc" transform="translate(4699.765625 0)"/>
    <use xlink:href="#DejaVuSans-3d1" transform="translate(4764.75 0)"/>
    <use xlink:href="#DejaVuSans-3c7" transform="translate(4830.125 0)"/>
    <use xlink:href="#DejaVuSans-3" transform="translate(4882.671875 0)"/>
    <use xlink:href="#DejaVuSans-3e1" transform="translate(4914.453125 0)"/>
    <use xlink:href="#DejaVuSans-3de" transform="translate(4969.34375 0)"/>
    <use xlink:href="#DejaVuSans-3cf" transform="translate(5040 0)"/>
    <use xlink:href="#DejaVuSans-3d2" transform="translate(5103.921875 0)"/>
    <use xlink:href="#DejaVuSans-3d1" transform="translate(5165.109375 0)"/>
    <use xlink:href="#DejaVuSans-3" transform="translate(5230.484375 0)"/>
    <use xlink:href="#DejaVuSans-42f" transform="translate(5262.265625 0)"/>
    <use xlink:href="#DejaVuSans-3cc" transform="translate(5322.671875 0)"/>
    <use xlink:href="#DejaVuSans-3cf" transform="translate(5387.65625 0)"/>
    <use xlink:href="#DejaVuSans-3cc" transform="translate(5451.578125 0)"/>
    <use xlink:href="#DejaVuSans-3d1" transform="translate(5516.5625 0)"/>
    <use xlink:href="#DejaVuSans-3c7" transform="translate(5581.9375 0)"/>
    <use xlink:href="#DejaVuSans-3c4" transform="translate(5634.484375 0)"/>
    <use xlink:href="#DejaVuSans-3d1" transform="translate(5695.765625 0)"/>
    <use xlink:href="#DejaVuSans-3" transform="translate(5761.140625 0)"/>
    <use xlink:href="#DejaVuSans-3cd" transform="translate(5792.921875 0)"/>
    <use xlink:href="#DejaVuSans-3cc" transform="translate(5857.90625 0)"/>
    <use xlink:href="#DejaVuSans-427" transform="translate(5922.890625 0)"/>
    <use xlink:href="#DejaVuSans-3d0" transform="translate(5981.921875 0)"/>
    <use xlink:href="#DejaVuSans-3c4" transform="translate(6057.359375 0)"/>
    <use xlink:href="#DejaVuSans-3" transform="translate(6118.640625 0)"/>
    <use xlink:href="#DejaVuSans-3ce" transform="translate(6150.421875 0)"/>
    <use xlink:href="#DejaVuSans-3f2" transform="translate(6210.828125 0)"/>
    <use xlink:href="#DejaVuSans-3d4" transform="translate(6270.015625 0)"/>
    <use xlink:href="#DejaVuSans-3d5" transform="translate(6333.5 0)"/>
    <use xlink:href="#DejaVuSans-3c4" transform="translate(6388.484375 0)"/>
    <use xlink:href="#DejaVuSans-3d6" transform="translate(6449.765625 0)"/>
    <use xlink:href="#DejaVuSans-3ce" transform="translate(6508.015625 0)"/>
    <use xlink:href="#DejaVuSans-3cc" transform="translate(6568.421875 0)"/>
    <use xlink:href="#DejaVuSans-3db" transform="translate(6633.40625 0)"/>
    <use xlink:href="#DejaVuSans-3cf" transform="translate(6692.484375 0)"/>
    <use xlink:href="#DejaVuSans-3c4" transform="translate(6756.40625 0)"/>
    <use xlink:href="#DejaVuSans-3d4" transform="translate(6817.6875 0)"/>
    <use xlink:href="#DejaVuSans-3cc" transform="translate(6881.171875 0)"/>
    <use xlink:href="#DejaVuSans-3c7" transform="translate(6946.15625 0)"/>
    <use xlink:href="#DejaVuSans-3c4" transform="translate(6998.703125 0)"/>
    <use xlink:href="#DejaVuSans-3" transform="translate(7059.984375 0)"/>
    <use xlink:href="#DejaVuSans-3cf" transform="translate(7091.765625 0)"/>
    <use xlink:href="#DejaVuSans-3c4" transform="translate(7155.6875 0)"/>
    <use xlink:href="#DejaVuSans-3d1" transform="translate(7216.96875 0)"/>
    <use xlink:href="#DejaVuSans-3c7" transform="translate(7282.34375 0)"/>
    <use xlink:href="#DejaVuSans-3c4" transform="translate(7334.890625 0)"/>
    <use xlink:href="#DejaVuSans-3d4" transform="translate(7396.171875 0)"/>
    <use xlink:href="#DejaVuSans-3cf" transform="translate(7459.65625 0)"/>
    <use xlink:href="#DejaVuSans-3c4" transform="translate(7523.578125 0)"/>
    <use xlink:href="#DejaVuSans-3d1" transform="translate(7584.859375 0)"/>
    <use xlink:href="#DejaVuSans-3c7" transform="translate(7650.234375 0)"/>
    <use xlink:href="#DejaVuSans-3c4" transform="translate(7702.78125 0)"/>
    <use xlink:href="#DejaVuSans-3d1" transform="translate(7764.0625 0)"/>
    <use xlink:href="#DejaVuSans-11" transform="translate(7829.4375 0)"/>
   </g>
  </g>
 </g>
 <defs>
  <clipPath id="p56951870a9">
   <rect x="85.86" y="33.5025" width="530.1" height="310.464"/>
  </clipPath>
 </defs>
</svg>
